<svg width="24" height="24" viewBox="0 0 24 24" fill="none" xmlns="http://www.w3.org/2000/svg">
<g clip-path="url(#clip0)">
<path d="M12 13.3427L7.4142 23.6783H16.5858L12 13.3427Z" fill="#F0AF0A"/>
<path d="M23.9009 22.5682L12.8545 3.43541L14.0112 1.43188C14.2156 1.07798 14.0943 0.625351 13.7404 0.421023C13.3864 0.216601 12.9338 0.337913 12.7295 0.691866L12 1.95538L11.2705 0.691866C11.0662 0.33796 10.6135 0.216647 10.2596 0.421023C9.90572 0.625351 9.78446 1.07798 9.98879 1.43188L11.1455 3.43541L0.0991453 22.5682C-0.0330891 22.7972 -0.0330891 23.0793 0.0991453 23.3083C0.231333 23.5372 0.475598 23.6782 0.74002 23.6782H5.79502L11.26 11.3612V3.43541H12.74V11.3612L18.205 23.6782H23.26C23.5244 23.6782 23.7687 23.5372 23.9009 23.3082C24.0331 23.0793 24.0331 22.7972 23.9009 22.5682Z" fill="#F0AF0A"/>
</g>
<defs>
<clipPath id="clip0">
<rect width="24" height="24" fill="white"/>
</clipPath>
</defs>
</svg>
