<svg width="740" height="723" viewBox="0 0 740 723" fill="none" xmlns="http://www.w3.org/2000/svg">
<path d="M614.84 543.69C593.068 542.619 576.253 521.17 577.318 504.365C578.429 486.98 593.156 473.76 599.467 457.791C612.94 422.992 584.606 389.644 600.661 355.551C618.996 316.92 667.566 312.906 697.703 286.479C704.705 280.433 707.858 272.453 713.549 266.336C723.466 255.776 730.252 263.66 731.538 274.768C733.041 292.863 717.279 311.854 707.08 326.463C696.126 342.786 685.813 359.14 683.277 378.194C681.516 395.548 691.342 407.651 692.949 424.003C693.675 433.343 693.707 443.225 693.16 451.917C692.582 461.186 686.896 467.302 681.763 475.192C670.87 490.348 664.741 500.8 653.85 515.956C649.459 522.72 648.255 536.466 643.188 543.191C638.209 548.762 620.96 551.54 614.84 543.69" fill="#213D21"/>
<path d="M721.977 280.691C720.007 304.566 698.692 323.59 680.282 339.309C671.151 347.105 662.635 355.426 655.459 364.676C647.603 374.799 641.565 386.23 636.572 397.632C626.383 420.881 623.572 445.761 628.355 470.291C631.025 483.949 632.967 497.456 630.319 511.263C627.791 524.556 619.566 536.466 613.203 548.551C607.367 559.618 603.397 570.814 602.063 582.971C600.741 595.098 601.782 607.377 603.911 619.384C606.151 631.912 609.983 644.211 614.444 656.258C616.485 661.756 618.715 667.195 621.032 672.605C623.648 678.744 626.848 684.999 628.451 691.408C628.794 692.785 631.225 692.321 630.878 690.947C629.59 685.823 627.233 680.77 625.091 675.873C622.178 669.235 619.416 662.549 616.876 655.798C612.15 643.252 608.388 630.409 606.055 617.354C603.674 603.961 603.259 590.314 605.361 576.873C607.443 563.58 614.29 551.379 620.866 539.437C627.281 527.802 632.652 516.63 633.916 503.62C635.187 490.569 632.088 477.912 629.917 465.089C625.46 438.649 631.382 412.357 643.745 388.166C649.22 377.457 655.774 367.313 664.035 358.064C672.172 348.945 681.887 341.257 691.24 333.127C706.945 319.485 722.805 300.811 724.456 280.82C724.571 279.416 722.091 279.297 721.977 280.691" fill="#18161D"/>
<path d="M586.339 536.606C608.115 535.539 624.922 514.09 623.863 497.295C622.759 479.906 608.019 466.676 601.717 450.713C588.257 415.909 616.579 382.558 600.518 348.475C582.18 309.843 533.621 305.831 503.487 279.399C496.482 273.347 493.324 265.368 487.643 259.256C477.709 248.696 470.926 256.576 469.649 267.693C468.148 285.784 483.916 304.774 494.107 319.388C505.062 335.712 515.369 352.06 517.905 371.111C519.668 388.464 509.851 400.571 508.236 416.924C507.505 426.259 507.467 436.141 508.025 444.839C508.611 454.107 514.304 460.218 519.424 468.106C530.327 483.264 536.441 493.716 547.336 508.878C551.726 515.646 552.933 529.382 557.995 536.116C562.974 541.679 580.222 544.456 586.339 536.606" fill="#6E8427"/>
<path d="M479.21 273.616C481.18 297.481 502.494 316.512 520.898 332.234C530.03 340.028 538.54 348.351 545.728 357.593C553.586 367.718 559.604 379.146 564.613 390.551C574.814 413.794 577.609 438.677 572.82 463.208C570.168 476.875 568.218 490.376 570.864 504.176C573.408 517.476 581.621 529.382 587.984 541.475C593.816 552.537 597.788 563.735 599.124 575.896C600.446 588.023 599.409 600.298 597.264 612.3C595.031 624.842 591.2 637.13 586.738 649.182C584.704 654.673 582.471 660.115 580.15 665.53C577.536 671.669 574.335 677.925 572.73 684.321C572.387 685.707 569.961 685.24 570.31 683.87C571.594 678.74 573.949 673.679 576.09 668.796C579.005 662.164 581.779 655.475 584.321 648.711C589.037 636.165 592.797 623.332 595.124 610.276C597.521 596.875 597.926 583.234 595.818 569.783C593.742 556.493 586.895 544.3 580.313 532.35C573.901 520.722 568.533 509.546 567.271 496.543C566.013 483.485 569.099 470.831 571.255 458.004C575.735 431.572 569.793 405.272 557.437 381.082C551.965 370.376 545.407 360.237 537.154 350.987C529.015 341.865 519.296 334.174 509.947 326.047C494.243 312.408 478.379 293.731 476.73 273.74C476.618 272.342 479.085 272.218 479.21 273.616" fill="#18161D"/>
<path d="M556.105 600.938C573.942 600.178 587.577 582.865 586.612 569.244C585.603 555.143 573.45 544.354 568.174 531.393C556.95 503.125 579.956 476.214 566.601 448.52C551.349 417.126 511.532 413.646 486.687 392.088C480.903 387.147 478.275 380.666 473.585 375.676C465.382 367.078 459.881 373.442 458.884 382.441C457.767 397.093 470.796 412.558 479.232 424.45C488.32 437.725 496.86 451.029 499.044 466.486C500.599 480.559 492.621 490.324 491.401 503.573C490.849 511.132 490.891 519.148 491.379 526.199C491.923 533.708 496.617 543.809 500.872 550.226C509.887 562.56 514.967 565.952 523.982 578.289C527.615 583.782 528.688 594.932 532.867 600.411C536.997 604.946 551.134 607.28 556.105 600.938Z" fill="#213D21"/>
<path d="M564.619 654.396C565.612 645.581 565.518 636.682 564.066 627.877C562.28 617.097 556.605 607.17 551.14 597.471C545.822 588.014 541.351 578.931 540.231 568.367C539.128 557.792 541.589 547.547 543.277 537.168C546.779 515.759 541.766 494.416 531.487 474.748C526.955 466.048 521.514 457.801 514.706 450.264C507.971 442.829 499.967 436.556 492.26 429.922C479.318 418.796 466.205 403.592 464.736 387.371C464.628 386.24 466.658 386.157 466.766 387.283C468.516 406.642 486.095 422.163 501.269 434.98C508.792 441.343 515.829 448.124 521.757 455.662C528.255 463.899 533.264 473.188 537.437 482.462C545.919 501.345 548.374 521.53 544.593 541.383C542.482 552.45 540.988 563.385 543.226 574.585C545.389 585.38 552.19 595.062 557.482 604.892C562.326 613.895 565.646 622.974 566.808 632.836C567.659 640.078 567.454 647.376 566.619 654.598C565.965 654.524 565.295 654.46 564.619 654.396" fill="#18161D"/>
<path d="M633.809 618.573C647.581 626.475 668.713 620.03 676.617 609.403C684.788 598.406 682.56 584.582 686.849 572.409C696.365 545.977 730.547 536.817 738.13 509.805C746.642 479.138 719.169 457.633 714.296 429.754C713.12 423.334 715.265 417.246 714.914 411.296C714.254 400.981 706.113 403.113 699.694 409.362C689.579 419.774 689.503 437.495 688.261 450.373C686.622 464.596 684.556 478.576 676.395 491.146C668.653 502.388 656.522 505.893 647.222 515.197C642.024 520.59 636.981 526.58 632.895 532.075C628.533 537.938 625.649 547.702 624.744 554.515C623.673 567.998 625.29 572.939 624.2 586.422C623.43 592.249 617.167 601.08 616.824 607.152C617.023 612.493 626.1 620.944 633.809 618.573Z" fill="#6E8427"/>
<path d="M606.314 662.508C612.631 656.406 618.194 649.718 622.692 642.458C628.178 633.569 630.223 623.466 632.317 613.628C634.329 604.043 636.75 595.144 642.61 586.74C648.474 578.313 656.795 571.837 664.629 564.898C680.786 550.577 690.562 532.269 695.356 512.716C697.477 504.075 698.654 495.331 698.351 486.474C698.047 477.737 696.046 469.25 694.492 460.642C691.892 446.196 691.751 428.622 700.923 415.817C701.565 414.921 703.128 415.825 702.486 416.71C691.543 431.997 694.819 451.925 698.012 468.696C699.591 477.019 700.54 485.409 700.193 493.85C699.822 503.084 697.667 512.401 694.909 521.29C689.276 539.417 678.323 555.636 662.928 568.669C654.356 575.924 646.32 583.372 640.901 592.797C635.673 601.874 634.61 612.336 632.325 622.18C630.237 631.193 626.961 639.551 621.592 647.467C617.644 653.274 612.874 658.625 607.676 663.612C607.221 663.251 606.771 662.869 606.314 662.508" fill="#18161D"/>
<path d="M552.202 639.088C538.43 646.986 517.312 640.547 509.4 629.909C501.229 618.913 503.46 605.099 499.169 592.916C489.644 566.49 455.46 557.334 447.887 530.312C439.387 499.647 466.855 478.15 471.715 450.271C472.895 443.842 470.759 437.753 471.092 431.803C471.762 421.498 479.894 423.63 486.332 429.875C496.439 440.281 496.523 458.003 497.763 470.89C499.395 485.107 501.46 499.083 509.611 511.666C517.374 522.904 529.495 526.4 538.789 535.709C543.983 541.097 549.038 547.093 553.121 552.58C557.482 558.448 560.375 568.219 561.265 575.028C562.357 588.515 560.728 593.45 561.821 606.937C562.583 612.77 568.85 621.599 569.207 627.668C568.985 633.01 559.929 641.46 552.202 639.088" fill="#6E8427"/>
<path d="M579.705 683.025C573.384 676.924 567.817 670.236 563.331 662.974C557.842 654.085 555.782 643.98 553.71 634.14C551.692 624.561 549.278 615.658 543.417 607.253C537.549 598.831 529.222 592.349 521.398 585.408C505.225 571.089 495.459 552.787 490.659 533.238C488.528 524.584 487.371 515.843 487.675 506.986C487.97 498.246 489.974 489.754 491.523 481.16C494.121 466.704 494.264 449.129 485.104 436.328C484.45 435.439 482.887 436.332 483.527 437.227C494.468 452.507 491.202 472.433 488.004 489.218C486.428 497.536 485.483 505.927 485.822 514.365C486.195 523.601 488.35 532.909 491.112 541.802C496.741 559.933 507.698 576.144 523.089 589.18C531.657 596.44 539.699 603.885 545.116 613.305C550.352 622.387 551.405 632.85 553.684 642.698C555.782 651.71 559.058 660.069 564.435 667.981C568.375 673.787 573.143 679.137 578.345 684.13C578.796 683.769 579.254 683.382 579.705 683.025" fill="#18161D"/>
<path d="M34.2701 722.436C25.5367 722.436 1.99988 722.435 1.99988 722.435C1.99988 722.435 0.499878 708.781 0.499878 700C0.499878 673 51.5895 671.444 71.0943 658.374C94.9917 642.359 97.4244 602.735 124.335 592.57C140.655 586.405 164.202 591.73 171.842 576.048C174.52 570.537 173.962 564.054 173.069 557.989C170.062 537.559 167.416 530.538 158.455 511.933C154.493 503.71 134.476 472.921 132.117 464.104C123.942 433.529 153.765 435.182 165.568 437.57C184.691 441.443 199.494 447.476 220.931 458.23C255.008 475.322 272.868 484.622 313.929 503.835C401.533 544.819 485.4 593.74 576.131 627.249C595.998 644.5 641.998 670.5 664.498 665.5C679.101 662.255 721.5 700.5 719.577 722.436H34.2701Z" fill="#2E2D2D"/>
<path d="M183.838 530.222C233.165 570.859 284.02 609.623 336.274 646.419C342.78 650.999 349.308 655.546 355.858 660.064C356.58 660.562 355.894 661.751 355.164 661.248C302.995 625.242 252.179 587.287 202.845 547.484C196.157 542.088 189.501 536.654 182.869 531.191C182.185 530.629 183.16 529.666 183.838 530.222Z" fill="white"/>
<path d="M231.44 596.753C238.896 603.658 246.351 610.561 253.809 617.462C254.459 618.064 253.487 619.031 252.839 618.431C245.38 611.53 237.927 604.627 230.471 597.724C229.821 597.122 230.792 596.155 231.44 596.753" fill="white"/>
<path d="M182.505 594.254C200.939 616.172 219.375 638.087 237.813 660.003C238.377 660.673 237.412 661.65 236.842 660.972C218.406 639.056 199.972 617.141 181.536 595.226C180.971 594.554 181.935 593.578 182.505 594.254" fill="#FAF9F2"/>
<path d="M115.49 645.162C121.081 646.964 126.67 648.769 132.263 650.573C133.101 650.844 132.742 652.168 131.896 651.895C126.307 650.091 120.716 648.288 115.123 646.484C114.286 646.212 114.645 644.888 115.49 645.162Z" fill="white"/>
<path d="M201.302 536.627C193.416 531.311 185.527 525.997 177.641 520.68C176.914 520.189 177.598 519.001 178.333 519.497C186.219 524.813 194.109 530.127 201.996 535.443C202.723 535.933 202.037 537.122 201.302 536.627" fill="white"/>
<path d="M486.003 649.708C459.069 633.432 432.134 617.155 405.2 600.879C404.445 600.422 405.134 599.236 405.892 599.694C432.826 615.973 459.761 632.249 486.697 648.524C487.453 648.981 486.763 650.167 486.003 649.708" fill="white"/>
<path d="M422.352 623.382C417.326 619.942 412.295 616.503 407.266 613.061C406.542 612.567 407.226 611.376 407.96 611.877C412.987 615.318 418.016 618.758 423.046 622.2C423.77 622.694 423.084 623.882 422.352 623.382" fill="white"/>
<path d="M120.501 655.59C117.899 654.982 115.293 654.372 112.689 653.764C111.827 653.565 112.194 652.241 113.054 652.442C115.658 653.05 118.262 653.66 120.868 654.268C121.729 654.468 121.362 655.79 120.501 655.59" fill="white"/>
<path d="M364.714 89.0682H420.101L489.204 149.134C497.147 156.037 496.182 168.649 487.281 174.261L470.379 184.931L496.577 252.917C500.703 263.632 492.791 275.159 481.308 275.159H364.714L333.195 96.8824L364.714 89.0682" fill="#333232"/>
<path d="M293.679 104.94C293.679 104.94 310.977 99.939 316.356 140.5C317.912 152.218 320.583 230.877 320.583 230.877L271.682 218.202L272.494 149.905C272.494 149.905 274.964 109.011 293.679 104.94" fill="#B5BD79"/>
<path d="M193.958 214.914L280.1 207.877C280.1 207.877 300.552 205.034 304.047 207.642C307.541 210.256 329.528 219.636 310.964 248.659C310.964 248.659 298.135 251.23 294.113 251.104C290.088 250.976 194.163 243.138 194.163 243.138C194.163 243.138 184.259 245.997 176.12 242.442C167.972 238.893 164.848 235.272 164.848 235.272C164.848 235.272 158.292 228.207 159.379 225.978C160.467 223.745 160.467 223.745 160.467 223.745C160.467 223.745 156.984 219.392 158.19 216.908C159.4 214.429 159.4 214.429 159.4 214.429C159.4 214.429 156.326 211.72 158.314 210.439C160.298 209.157 166.742 212.047 166.742 212.047L173.956 212.541L173.46 208.94C173.46 208.94 179.485 205.572 182.327 206.709C185.184 207.851 193.958 214.914 193.958 214.914" fill="#ECA355"/>
<path d="M216.99 247.648L216.785 247.531C216.38 247.244 216.304 246.721 216.617 246.378L224.079 238.189C224.398 237.838 224.986 237.794 225.385 238.083C225.788 238.373 225.859 238.893 225.544 239.24L218.081 247.425C217.818 247.716 217.369 247.798 216.99 247.648" fill="#211F1D"/>
<path d="M225.045 249.978L224.838 249.862C224.429 249.573 224.357 249.055 224.676 248.712L232.141 240.521C232.455 240.174 233.043 240.13 233.442 240.417C233.846 240.706 233.914 241.223 233.597 241.567L226.138 249.761C225.869 250.05 225.422 250.13 225.045 249.978Z" fill="#211F1D"/>
<path d="M233.464 251.569L233.255 251.453C232.848 251.162 232.78 250.648 233.089 250.295L240.554 242.108C240.869 241.765 241.462 241.721 241.86 242.006C242.261 242.293 242.331 242.812 242.014 243.157L234.557 251.346C234.291 251.639 233.835 251.721 233.464 251.569" fill="#211F1D"/>
<path d="M292.359 212.566C292.295 212.37 292.281 212.153 292.345 211.95C292.479 211.501 292.919 211.277 293.326 211.455C299.344 214.147 313.407 220.392 313.407 220.392L312.919 222.027C312.919 222.027 298.849 215.78 292.834 213.1C292.612 212.998 292.449 212.795 292.359 212.566" fill="#211F1D"/>
<path d="M275.835 190.711L275.806 190.626C271.461 175.003 273.483 164.726 275.945 158.852C278.643 152.424 282.372 149.766 282.523 149.656C282.878 149.405 283.361 149.542 283.6 149.961C283.841 150.38 283.753 150.92 283.399 151.173C282.818 151.58 269.313 161.53 277.279 190.185C277.415 190.653 277.191 191.136 276.785 191.258C276.398 191.371 275.983 191.128 275.835 190.711" fill="#211F1D"/>
<path d="M272.637 191.095C272.637 191.095 314.43 188.823 323.363 199.326L326.141 206.697L324.625 229.145L271.919 206.867L272.637 191.095Z" fill="#534F55"/>
<path d="M189.836 539.256L188.709 553.271L186.331 539.455L168.008 216.19L171.516 215.989L189.836 539.256Z" fill="#321C2C"/>
<path d="M176.592 538.194C176.51 536.743 181.541 535.275 187.832 534.92C194.125 534.561 199.293 535.449 199.369 536.902C199.457 538.352 194.42 539.821 188.131 540.174C181.84 540.533 176.676 539.646 176.592 538.194" fill="#321C2C"/>
<path d="M158.637 190.353L174.844 189.434L174.752 234.264L167.741 234.663L162.904 195.825L158.637 190.353" fill="#21201F"/>
<path d="M181.574 206.476C181.574 206.476 167.885 208.313 167.443 212.047C167.004 215.782 169.445 215.927 179.514 213.722C189.581 211.517 181.574 206.476 181.574 206.476" fill="#ECA355"/>
<path d="M512.824 640.908L459.926 536.427L507.534 529.818L533.983 646.2L512.824 640.908" fill="#F2A67C"/>
<path d="M465.219 439.889C507.07 475.712 531.938 582.181 529.579 592.416C526.929 603.877 489.018 599.471 489.018 599.471L428.428 496.511C424.664 490.611 423.687 483.299 425.898 476.659C428.809 467.912 433.928 462.199 442.025 461.049L465.219 439.889Z" fill="#414042"/>
<path d="M448.026 283.833C466.532 319.541 449.528 366.683 450.06 390.641C450.808 424.502 476.153 461.749 481.086 461.049C469.565 468.546 464.135 478.508 452.622 486.001C451.368 486.823 456.146 518.534 444.052 513.946C435.829 510.826 420.747 482.35 409.547 469.766C382.868 439.809 352.684 392.471 349.802 352.572C348.159 329.985 361.222 256.727 394.254 257.62C403.358 257.864 409.328 255.778 413.76 253.692C425.844 248.006 426.498 242.321 448.026 283.833" fill="#414042"/>
<path d="M534.955 671.786L534.376 675.947C532.941 686.296 528.849 696.09 522.502 704.385L512.63 704.331L494.25 690.938C494.25 690.938 495.285 687.376 493.734 686.242C492.428 685.293 488.679 686.866 486.898 685.566C483.034 682.748 478.751 679.626 477.034 678.376C473.589 675.861 440.172 651.485 440.172 651.485C440.172 651.485 442.388 646.698 444.451 645.996C445.514 645.637 449.522 646.594 452.034 647.454C463.677 651.428 497.534 662.041 509.56 655.479C524.181 647.491 534.955 671.786 534.955 671.786" fill="#9FA46A"/>
<path d="M443.468 646.634C441.737 648.127 440.172 651.485 440.172 651.485C440.172 651.485 473.588 675.861 477.034 678.375C478.751 679.626 483.034 682.748 486.898 685.565C488.679 686.866 492.427 685.292 493.733 686.241C495.285 687.376 494.25 690.937 494.25 690.937L518.927 708.935L522.502 704.384L443.468 646.634" fill="#E5F6F9"/>
<path d="M519.705 674.465C505.678 669.028 494.288 662.976 497.836 657.662C503.13 649.722 499.162 635.176 493.433 611.809C495.892 617.638 506.208 623.717 514.591 625.035C521.087 626.066 529.511 624.15 531.781 620.192C537.073 636.058 537.918 671.68 533.545 681.901C531.336 687.067 519.705 674.465 519.705 674.465" fill="#9FA46A"/>
<path d="M484.376 663.345C483.543 663.642 482.974 662.199 482.444 660.027C481.156 654.749 481.236 655.288 482.444 655.443C483.279 655.565 484.231 655.76 484.924 658.875C485.411 661.062 485.216 663.05 484.376 663.345Z" fill="#E5F6F9"/>
<path d="M491.102 664.564C490.262 664.859 489.694 663.418 489.17 661.24C487.878 655.97 487.955 656.505 489.164 656.67C490.003 656.782 490.96 656.971 491.656 660.08C492.139 662.275 491.927 664.275 491.102 664.564" fill="#E5F6F9"/>
<path d="M497.668 665.152C496.828 665.447 496.256 664.009 495.726 661.832C494.442 656.56 494.521 657.09 495.732 657.258C496.571 657.367 497.528 657.563 498.216 660.671C498.709 662.861 498.499 664.855 497.668 665.152" fill="#E5F6F9"/>
<path d="M506.543 664.408C505.745 664.793 505.018 663.433 504.244 661.325C502.376 656.239 502.511 656.757 503.732 656.775C504.585 656.797 505.548 656.883 506.585 659.898C507.319 662.015 507.337 664.023 506.543 664.408" fill="#E5F6F9"/>
<path d="M517.567 651.905L517.561 651.72C517.774 651.714 517.988 651.71 518.203 651.71C520.016 651.71 521.864 651.951 523.471 652.83C525.186 653.769 526.548 655.56 526.552 657.536L526.542 657.831C526.422 659.554 525.268 661.059 523.812 661.929C522.354 662.792 520.642 663.089 518.973 663.123L518.668 663.125C516.69 663.125 514.684 662.764 512.933 661.815C510.626 660.559 506.991 658.896 505.039 657.251L504.917 657.147L505.003 657.012C507.398 653.217 513.43 651.847 517.561 651.72L517.567 651.905L517.571 652.088C513.503 652.198 507.553 653.61 505.316 657.209L505.159 657.109L505.278 656.97C507.159 658.559 510.788 660.23 513.109 661.49C514.789 662.401 516.734 662.756 518.668 662.756L518.965 662.754C520.596 662.72 522.245 662.429 523.623 661.612C524.994 660.792 526.069 659.374 526.173 657.805L526.183 657.536C526.187 655.739 524.913 654.039 523.294 653.155C521.768 652.318 519.984 652.078 518.203 652.078C517.992 652.078 517.782 652.083 517.571 652.088L517.567 651.905" fill="#E5F6F9"/>
<path d="M498.093 644.265L497.907 644.277C497.895 644.059 497.889 643.838 497.889 643.617C497.891 641.876 498.288 639.986 499.774 639.003C500.593 638.464 501.562 638.333 502.519 638.333C502.95 638.333 503.381 638.359 503.797 638.391C505.145 638.498 506.597 638.636 507.741 639.469C508.852 640.281 509.446 641.613 509.689 642.935C509.791 643.489 509.837 644.047 509.837 644.604C509.837 646.723 509.171 648.829 508.34 650.777C507.771 652.099 507.265 653.638 506.676 654.861C506.088 656.071 505.42 657.026 504.411 657.042C503.606 657.034 502.744 656.416 501.688 654.992C499.423 651.936 498.12 648.049 497.907 644.277L498.093 644.265L498.276 644.255C498.485 647.96 499.768 651.784 501.985 654.771C503.016 656.171 503.823 656.681 504.411 656.673C505.133 656.689 505.771 655.901 506.344 654.699C506.916 653.511 507.424 651.973 508 650.631C508.822 648.707 509.468 646.644 509.468 644.604C509.468 644.067 509.424 643.533 509.326 643.001C509.095 641.738 508.527 640.498 507.524 639.766C506.491 639.011 505.113 638.863 503.769 638.757C503.357 638.728 502.936 638.702 502.519 638.702C501.594 638.702 500.703 638.831 499.977 639.312C498.661 640.169 498.258 641.92 498.258 643.617C498.258 643.832 498.264 644.045 498.276 644.255L498.093 644.265Z" fill="#E5F6F9"/>
<path d="M336.178 531.832L304.187 532.48C297.719 521.23 291.358 493.566 285.014 474.119C297.695 473.589 319.692 470.213 329.487 470.113C330.352 491.293 336.178 531.832 336.178 531.832" fill="#F2A67C"/>
<path d="M342.941 548.179L342.999 552.382C343.131 562.826 340.564 573.125 335.536 582.285L325.763 583.717L305.589 573.237C305.589 573.237 306.075 569.56 304.36 568.676C302.927 567.927 299.461 570.05 297.505 569.035C293.26 566.832 288.556 564.385 286.674 563.41C282.889 561.442 246.187 542.376 246.187 542.376C246.187 542.376 247.654 537.306 249.587 536.299C250.588 535.786 254.695 536.127 257.305 536.606C269.414 538.783 304.488 544.179 315.385 535.878C328.633 525.781 342.941 548.179 342.941 548.179" fill="#9FA46A"/>
<path d="M248.71 537.078C247.228 538.815 246.187 542.376 246.187 542.376C246.187 542.376 282.89 561.443 286.674 563.411C288.557 564.386 293.26 566.832 297.506 569.035C299.462 570.05 302.927 567.927 304.361 568.677C306.076 569.56 305.589 573.237 305.589 573.237L332.695 587.314L335.536 582.285L248.71 537.078" fill="#E5F6F9"/>
<path d="M328.268 553.128C313.587 549.866 303.446 546.795 303.434 540.395C303.412 530.64 299.904 527.618 293.733 510.864C297.041 516.246 311.804 519.678 320.185 517.474C330.854 514.667 333.524 513.363 335.173 509.102C338.254 529.38 343.546 536.429 343.107 555.83C342.976 561.443 328.268 553.128 328.268 553.128Z" fill="#9FA46A"/>
<path d="M291.675 547.443C290.891 547.87 290.11 546.526 289.256 544.46C287.191 539.439 287.354 539.958 288.574 539.93C289.42 539.924 290.381 539.97 291.539 542.947C292.351 545.03 292.457 547.03 291.675 547.443Z" fill="#E5F6F9"/>
<path d="M298.501 547.642C297.719 548.061 296.942 546.717 296.088 544.643C294.025 539.626 294.182 540.147 295.4 540.127C296.246 540.113 297.223 540.159 298.371 543.13C299.183 545.227 299.283 547.233 298.501 547.642" fill="#E5F6F9"/>
<path d="M305.084 547.234C304.297 547.646 303.519 546.316 302.664 544.237C300.598 539.23 300.755 539.734 301.982 539.714C302.831 539.7 303.798 539.752 304.945 542.725C305.768 544.815 305.862 546.815 305.084 547.234" fill="#E5F6F9"/>
<path d="M313.746 545.16C313.018 545.668 312.087 544.428 311.006 542.46C308.396 537.712 308.604 538.199 309.82 538.041C310.659 537.936 311.628 537.87 313.11 540.699C314.153 542.683 314.474 544.665 313.746 545.16Z" fill="#E5F6F9"/>
<path d="M322.759 531.142L322.727 530.961C323.684 530.786 324.669 530.666 325.65 530.666C326.699 530.666 327.744 530.803 328.739 531.166C330.667 531.876 332.35 533.563 332.525 535.653L332.539 536.002C332.537 537.593 331.666 539.11 330.445 540.113C329.135 541.19 327.486 541.734 325.839 542.019C325.02 542.161 324.182 542.241 323.345 542.241C322.097 542.241 320.851 542.063 319.668 541.639C317.204 540.747 313.355 539.649 311.184 538.317L311.046 538.231L311.11 538.085C312.903 533.97 318.665 531.711 322.725 530.961L322.759 531.142L322.793 531.324C318.791 532.048 313.116 534.335 311.449 538.231L311.28 538.159L311.377 538.002C313.469 539.29 317.313 540.398 319.794 541.292C320.928 541.698 322.133 541.872 323.345 541.872C324.159 541.872 324.976 541.794 325.778 541.655C327.387 541.377 328.974 540.847 330.21 539.828C331.361 538.885 332.172 537.453 332.17 536.002L332.156 535.685C332.005 533.784 330.434 532.181 328.611 531.513C327.668 531.17 326.667 531.035 325.65 531.035C324.699 531.035 323.736 531.152 322.793 531.324L322.759 531.142" fill="#E5F6F9"/>
<path d="M302.357 526.522L302.175 526.56C302.038 525.9 301.946 525.196 301.946 524.5C301.944 523.214 302.263 521.938 303.23 521.064C304.289 520.117 305.776 519.96 307.116 519.852C307.577 519.818 308.047 519.788 308.52 519.788C309.433 519.788 310.351 519.9 311.176 520.331C312.402 520.967 313.188 522.191 313.627 523.459C313.997 524.532 314.147 525.647 314.147 526.769C314.147 528.33 313.858 529.908 313.467 531.411C313.09 532.859 312.815 534.528 312.394 535.85C312.183 536.51 311.936 537.088 311.605 537.514C311.276 537.939 310.839 538.218 310.301 538.216C309.551 538.212 308.672 537.714 307.531 536.583C304.825 533.907 302.957 530.26 302.175 526.56L302.357 526.522L302.536 526.484C303.302 530.115 305.144 533.704 307.79 536.322C308.903 537.429 309.728 537.851 310.301 537.847C310.707 537.846 311.022 537.656 311.312 537.287C312.189 536.181 312.544 533.519 313.108 531.319C313.495 529.832 313.776 528.285 313.776 526.769C313.776 525.678 313.631 524.606 313.276 523.581C312.859 522.368 312.113 521.23 311.007 520.66C310.259 520.269 309.403 520.157 308.52 520.157C308.063 520.157 307.601 520.187 307.144 520.221C305.81 520.323 304.41 520.494 303.477 521.34C302.62 522.111 302.315 523.268 302.315 524.5C302.315 525.162 302.403 525.844 302.536 526.484L302.357 526.522" fill="#E5F6F9"/>
<path d="M306.6 379.85C342.621 421.535 335.213 481.404 335.02 491.91C334.924 497.333 291.649 502.503 291.649 502.503L249.908 407.119C247.071 400.71 247.2 393.343 250.383 387.108C254.566 378.901 260.492 374.012 268.667 374.085L306.6 379.85" fill="#534F55"/>
<path d="M420.343 345.667C398.844 356.262 367.188 368.097 344.7 376.393C322.218 384.686 307.89 410.801 295.468 422.126C284.427 413.951 267.271 420.238 256.223 412.061C255.023 411.17 247.761 400.181 247.007 398.897C237.747 383.021 240.447 375.428 248.329 360.54C267.094 325.079 309.019 285.772 345.408 269.147C366.002 259.736 424.855 243.337 441.411 271.932C455.96 297.058 459.924 326.156 420.343 345.667" fill="#534F55"/>
<path d="M409.133 297.674C389.219 323.996 341.931 351.126 304.169 361.937C293.263 365.058 285.223 374.515 284.738 385.819C284.712 386.441 284.701 387.057 284.701 387.665C284.697 402.939 292.9 414.041 301.188 426.517C309.471 438.983 317.806 452.823 317.802 473.479C317.802 478.611 317.29 484.16 316.135 490.214L315.409 490.076C316.554 484.065 317.064 478.561 317.064 473.479C317.06 453.033 308.843 439.382 300.574 426.926C292.311 414.482 283.965 403.228 283.961 387.665C283.961 387.045 283.973 386.419 284.001 385.787C284.501 374.142 292.776 364.428 303.966 361.227C341.574 350.478 388.826 323.333 408.543 297.228L409.133 297.674" fill="white"/>
<path d="M377.377 326.623C376.115 326.99 374.733 327.153 373.281 327.153C366.255 327.145 357.521 323.359 352.421 319.782C346.242 315.439 342.202 308.231 341.719 300.702L342.457 300.654C342.922 307.952 346.856 314.972 352.845 319.178C357.818 322.681 366.514 326.424 373.281 326.416C374.679 326.416 375.991 326.256 377.17 325.913L377.377 326.623Z" fill="white"/>
<path d="M289.346 110.511C289.346 110.511 285.781 132.927 292.943 175.895C296.883 199.527 308.424 231.757 308.424 231.757L331.331 276.529L442.535 269.564C442.535 269.564 430.23 167.436 420.127 140.578C407.314 106.519 397.075 76.7338 340.216 91.6425C328.649 94.6793 334.766 116.445 334.766 116.445L289.346 110.511" fill="#9FA46A"/>
<path d="M337.951 279.744C337.666 279.702 337.403 279.5 337.249 279.167C337.123 278.882 333.991 272.087 331.479 262.578C328.077 249.715 327.515 238.622 329.802 229.618C334.99 209.22 319.331 154.829 319.174 154.282C318.981 153.628 319.26 152.869 319.796 152.58C320.326 152.298 320.917 152.592 321.108 153.246C321.762 155.513 337.155 208.998 331.758 230.242C326.601 250.506 338.918 277.484 339.044 277.752C339.315 278.35 339.141 279.149 338.647 279.54C338.426 279.712 338.186 279.775 337.951 279.744" fill="#211F1D"/>
<path d="M275.181 21.5545C258.249 32.9041 252.728 57.5751 266.105 73.7341C272.079 80.9482 281.255 85.6141 290.591 86.2103C302.327 86.948 312.851 81.4049 320.276 72.5477C329.439 61.609 333.098 45.8548 325.032 33.1215C318.159 22.2664 305.091 16.0014 292.393 16.3185C286.31 16.474 280.256 18.1568 275.181 21.5545" fill="#ECA355"/>
<path d="M292.21 55.9105C291.968 57.3023 290.643 58.2275 289.247 57.9882C287.855 57.741 286.92 56.415 287.171 55.0232C287.412 53.6294 288.74 52.6982 290.134 52.9475C291.526 53.1867 292.455 54.5148 292.21 55.9105Z" fill="#131210"/>
<path d="M274.602 64.4375C274.986 64.4375 275.387 64.1823 275.319 63.7457C274.709 59.8315 274.817 56.0928 275.9 52.2664C275.995 51.9315 275.744 51.7301 275.481 51.7301C275.297 51.7301 275.11 51.8278 275.032 52.0471C273.662 55.8974 273.258 59.9252 273.967 63.9609C274.027 64.2899 274.308 64.4375 274.602 64.4375" fill="#D75C32"/>
<path d="M302.391 67.6895C305.886 67.6895 308.983 65.183 309.611 61.6218C310.309 57.628 307.647 53.8255 303.653 53.1217C303.224 53.0459 302.8 53.01 302.379 53.01C298.88 53.01 295.783 55.5184 295.151 59.0835C294.457 63.0754 297.121 66.8779 301.115 67.5778C301.544 67.6516 301.97 67.6895 302.391 67.6895" fill="#D75C32"/>
<path d="M276.97 77.0073C277.054 77.0073 277.136 77.0053 277.218 77.0033C280.011 76.9355 282.581 75.6116 284.276 73.3684C284.53 73.0274 284.571 72.5887 284.378 72.2139C284.187 71.841 283.796 71.6456 283.411 71.6456C283.106 71.6456 282.805 71.7692 282.609 72.0304C281.252 73.8669 279.186 74.9496 276.941 75.0034C276.891 75.0034 276.839 75.0034 276.789 75.0034C276.456 75.0034 276.121 74.9815 275.782 74.9396L275.629 74.9296C275.11 74.9396 274.691 75.3444 274.652 75.8608C274.616 76.3613 274.947 76.794 275.447 76.8737C275.956 76.9595 276.466 77.0073 276.97 77.0073" fill="#ED863A"/>
<path d="M300.676 47.123C302.508 49.739 303.218 52.9134 302.664 56.0619C302.111 59.2083 300.369 61.96 297.743 63.7924C295.808 65.1543 293.535 65.902 291.172 65.9578C287.159 66.0535 283.386 64.1493 281.079 60.8633C277.293 55.4617 278.603 47.9844 284.004 44.1999C285.946 42.8361 288.219 42.0863 290.582 42.0325C294.602 41.9348 298.371 43.837 300.676 47.123ZM298.285 64.5541C301.1 62.5721 302.987 59.6151 303.579 56.2174C304.175 52.8317 303.419 49.4041 301.435 46.5927C298.959 43.0514 294.891 40.9976 290.564 41.1013C288.014 41.1592 285.569 41.9666 283.478 43.4382C277.65 47.5218 276.24 55.5734 280.319 61.4037C282.802 64.9409 286.868 66.9887 291.196 66.887C293.737 66.8252 296.191 66.0216 298.285 64.5541Z" fill="white"/>
<path d="M262.986 41.2255C269.482 42.366 273.841 48.5792 272.697 55.0834C271.716 60.6824 266.886 64.8438 261.209 64.9754C260.43 64.9994 259.63 64.9335 258.847 64.798C255.694 64.2496 252.953 62.4989 251.114 59.8848C249.282 57.2668 248.576 54.0905 249.13 50.948C250.115 45.345 254.947 41.1817 260.621 41.0481C261.409 41.0321 262.202 41.0839 262.986 41.2255ZM273.618 55.2409C274.848 48.2402 270.148 41.5386 263.146 40.3123C262.304 40.1668 261.443 40.0989 260.597 40.1189C254.48 40.2624 249.274 44.7508 248.213 50.7865C247.615 54.1762 248.378 57.5978 250.354 60.4193C252.336 63.2367 255.291 65.1189 258.683 65.7131C259.529 65.8627 260.386 65.9265 261.235 65.9066C267.349 65.759 272.555 61.2766 273.618 55.2409" fill="white"/>
<path d="M271.094 46.9661C274.089 45.2055 277.494 44.7569 280.547 46.683C281.155 47.0698 281.724 46.0589 281.09 45.698C277.835 43.8955 273.56 43.8795 270.727 46.5135C270.482 46.7508 270.815 47.1296 271.094 46.9661" fill="white"/>
<path d="M324.723 65.8625C328.229 84.5976 331.048 90.6652 334.47 100.111C331.708 110.722 330.39 119.145 321.73 124.768C316.093 128.432 308.949 131.035 302.686 128.58C296.75 126.255 293.321 120.138 290.633 114.357C290.059 113.129 289.488 111.865 289.347 110.511C289.173 108.812 289.698 107.125 290.13 105.47C291.821 98.9819 292.063 91.712 288.715 85.8997C302.688 81.2219 313.649 75.579 324.723 65.8625" fill="#ECA355"/>
<path d="M321.309 71.6508C317.204 76.2967 312.297 80.2885 306.69 82.9485C301.095 85.5964 294.766 86.8606 288.613 86.079C288.904 86.4758 289.045 86.8985 289.193 87.3631C290.317 90.8266 291.448 94.3798 291.354 98.0208C291.354 98.0726 300.02 95.2911 300.825 94.9262C305.513 92.7886 310 89.6163 313.796 86.1408C317.648 82.6275 322.216 77.2538 321.309 71.6508" fill="#131210"/>
<path d="M267.557 54.1766C267.305 55.5703 265.985 56.5016 264.588 56.2603C263.196 56.011 262.267 54.687 262.514 53.2953C262.755 51.9015 264.081 50.9683 265.477 51.2136C266.871 51.4589 267.802 52.7848 267.557 54.1766Z" fill="#131210"/>
<path d="M327.223 72.3154C327.223 72.3154 312.925 59.5202 320.946 38.6874C320.946 38.6874 317.2 46.0291 312.606 44.2745C308.02 42.5278 312.378 34.588 312.378 34.588C312.378 34.588 291.998 52.0928 269.975 48.069C247.954 44.0472 234.114 17.3662 252.835 4.19215C264.113 -3.75173 273.195 1.16148 281.883 6.07257C287.614 9.31274 293.173 12.5528 299.075 12.1021C313.926 10.9636 321.066 13.6813 323.247 23.7408C323.247 23.7408 335.163 27.0966 334.603 44.8308C334.037 62.563 329.351 63.3087 329.967 68.3873C330.577 73.4599 327.865 72.447 327.223 72.3154" fill="#131210"/>
<path d="M317.363 129.193L331.435 91.8523L340.216 91.6429L344.716 146.867L317.363 129.193" fill="#D5DC8F"/>
<path d="M317.363 129.192L291.803 98.3516L287.105 108.473L292.78 144.402L317.363 129.192Z" fill="#D5DC8F"/>
<path d="M304.718 69.7542C304.718 69.7542 296.995 73.3254 289.773 70.5618C282.551 67.7962 277.734 62.6439 272.886 67.5789C268.043 72.5179 259.078 76.9026 254.331 74.795C254.331 74.795 265.196 82.2384 275.185 73.6146C275.185 73.6146 297.589 82.7747 304.718 69.7542Z" fill="#131210"/>
<path d="M328.484 55.2993C328.585 59.4248 325.317 62.8524 321.19 62.9501C317.064 63.0458 313.635 59.7797 313.535 55.6522C313.439 51.5208 316.709 48.1011 320.835 48.0014C324.964 47.9057 328.39 51.1698 328.484 55.2993" fill="#ECA355"/>
<path d="M323.437 57.9604C323.758 57.9604 324.085 57.6912 323.962 57.2925C323.21 54.8718 321.433 52.842 319.244 51.6057C319.176 51.5658 319.11 51.5499 319.049 51.5499C318.698 51.5499 318.486 52.0823 318.863 52.3056C319.758 52.848 320.51 53.498 321.134 54.2477C321.154 54.2118 321.172 54.1779 321.19 54.144C321.268 54.0004 321.387 53.9406 321.509 53.9406C321.768 53.9406 322.029 54.2118 321.874 54.5209C321.8 54.6645 321.732 54.81 321.668 54.9556C322.207 55.7472 322.628 56.6305 322.945 57.5995C323.028 57.8508 323.232 57.9604 323.437 57.9604" fill="#12110F"/>
<path d="M320.624 59.4624C320.879 59.4624 321.128 59.2968 321.09 58.9758C320.929 57.5701 321.11 56.2342 321.668 54.9561C321.503 54.7108 321.324 54.4735 321.134 54.2482C320.358 55.7177 320 57.3309 320.107 58.9978C320.125 59.3108 320.378 59.4624 320.624 59.4624Z" fill="#12110F"/>
<path d="M321.668 54.9565C321.732 54.811 321.8 54.6654 321.874 54.5218C322.029 54.2128 321.768 53.9416 321.509 53.9416C321.387 53.9416 321.267 54.0014 321.19 54.1449C321.172 54.1788 321.154 54.2127 321.134 54.2486C321.323 54.4739 321.503 54.7113 321.668 54.9565" fill="#100F0D"/>
<path d="M450.348 288.798L444.809 275.159H443.463C444.874 277.791 446.39 280.677 448.027 283.833C448.874 285.466 449.646 287.121 450.348 288.798" fill="#9BA18B"/>
<path d="M443.463 275.159H444.809L442.536 269.564L440.486 269.692C441.423 271.381 442.414 273.199 443.463 275.159" fill="#21201D"/>
<path d="M450.736 289.753L450.347 288.798C449.646 287.121 448.874 285.466 448.027 283.833C446.39 280.677 444.874 277.792 443.462 275.16C442.414 273.2 441.423 271.381 440.485 269.692L439.987 269.724C440.489 270.428 440.966 271.166 441.411 271.933C444.758 277.712 447.544 283.704 449.37 289.739C450.262 289.749 450.736 289.753 450.736 289.753Z" fill="#282824"/>
<path d="M449.371 289.739C447.544 283.704 444.759 277.712 441.411 271.933C440.966 271.166 440.49 270.428 439.987 269.724L338.326 276.091C338.758 277.128 339.026 277.714 339.044 277.752C339.315 278.35 339.141 279.149 338.647 279.54C338.463 279.684 338.266 279.752 338.071 279.752C338.031 279.752 337.991 279.75 337.951 279.744C337.666 279.702 337.403 279.5 337.249 279.167C337.201 279.06 336.721 278.013 336.005 276.236L331.331 276.529L320.572 283.351C320.627 288.204 435.503 289.59 449.371 289.739" fill="#34312E"/>
<path d="M338.071 279.751C338.266 279.751 338.463 279.684 338.647 279.54C339.141 279.149 339.315 278.35 339.044 277.752C339.026 277.714 338.758 277.127 338.326 276.091L336.005 276.236C336.721 278.013 337.201 279.06 337.249 279.167C337.403 279.5 337.666 279.702 337.951 279.744C337.991 279.75 338.031 279.751 338.071 279.751" fill="#1A1816"/>
<path d="M448.587 273.017C324.133 224.295 342.533 91.1533 342.74 89.7914L350.923 89.0696C350.874 89.3906 347.562 122.343 357.525 160.048C370.771 210.198 402.503 245.415 451.829 264.728L448.587 273.017" fill="#333232"/>
<path d="M307.856 248.947C272.451 127.717 277.682 121.783 279.574 119.047L287.105 108.474C287.3 108.194 287.101 108.478 287.105 108.474C286.79 109.219 286.038 137.846 320.188 254.751L307.856 248.947Z" fill="#333232"/>
<path d="M632.403 565.117L641.258 576.038L630.002 567.679L393.671 346.361L396.072 343.793L632.403 565.117" fill="#321C2C"/>
<path d="M622.084 573.488C621.023 572.493 623.654 567.961 627.96 563.361C632.267 558.761 636.62 555.836 637.679 556.837C638.742 557.824 636.11 562.364 631.803 566.958C627.496 571.56 623.147 574.479 622.084 573.488Z" fill="#321C2C"/>
<path d="M369.061 334.124L380.155 322.276L411.023 354.787L406.222 359.912L375.924 335.141L369.061 334.124" fill="#21201F"/>
<path d="M354.582 99.3471C354.582 99.3471 366.476 77.982 403.839 107.502C414.632 116.032 479.954 180.943 479.954 180.943L412.652 202.241L371.054 158.854C371.054 158.854 340.637 121.306 354.582 99.3471" fill="#B5BD79"/>
<path d="M400.401 322.346L421.83 214.498C421.83 214.498 425.469 188.724 429.902 184.788C434.334 180.85 453.55 155.038 482.761 182.469C482.761 182.469 481.449 198.766 479.886 203.73C478.327 208.699 435.194 326.394 435.194 326.394C435.194 326.394 435.245 339.103 428.031 348.654C420.821 358.205 415.274 361.523 415.274 361.523C415.274 361.523 404.301 368.566 401.937 366.885C399.572 365.196 399.572 365.196 399.572 365.196C399.572 365.196 392.996 368.849 390.368 366.973C387.734 365.097 387.734 365.097 387.734 365.097C387.734 365.097 383.333 368.488 382.454 365.834C381.57 363.18 387.371 355.635 387.371 355.635L390.509 346.77L385.895 346.834C385.895 346.834 383.856 338.854 386.254 335.496C388.645 332.141 400.401 322.346 400.401 322.346" fill="#ECA355"/>
<path d="M448.705 298.789L448.495 299.031C447.997 299.485 447.335 299.493 447.014 299.057L439.545 288.558C439.226 288.112 439.379 287.374 439.874 286.925C440.368 286.469 441.028 286.463 441.347 286.909L448.812 297.401C449.08 297.772 449.02 298.347 448.705 298.789" fill="#211F1D"/>
<path d="M454.381 289.163L454.172 289.404C453.674 289.861 453.012 289.871 452.697 289.426L445.227 278.924C444.908 278.48 445.06 277.746 445.552 277.303C446.053 276.841 446.709 276.831 447.026 277.279L454.495 287.775C454.758 288.146 454.698 288.718 454.381 289.163" fill="#211F1D"/>
<path d="M459.271 278.973L459.066 279.213C458.565 279.667 457.907 279.679 457.584 279.239L450.121 268.734C449.808 268.292 449.951 267.56 450.446 267.107C450.946 266.651 451.602 266.643 451.921 267.087L459.387 277.58C459.652 277.955 459.596 278.529 459.271 278.973" fill="#211F1D"/>
<path d="M454.734 196.412C454.517 196.311 454.331 196.135 454.224 195.9C453.992 195.375 454.22 194.753 454.74 194.504C462.419 190.885 480.338 182.381 480.338 182.381L481.194 184.277C481.194 184.277 463.27 192.775 455.596 196.404C455.308 196.536 454.997 196.528 454.734 196.412Z" fill="#211F1D"/>
<path d="M406.728 190.603L406.638 190.557C390.158 181.431 383.802 170.611 381.375 163.134C378.713 154.957 380.015 148.999 380.065 148.75C380.191 148.185 380.741 147.828 381.301 147.946C381.856 148.07 382.205 148.622 382.083 149.186C381.876 150.11 377.421 171.977 407.645 188.718C408.142 188.996 408.319 189.628 408.04 190.138C407.783 190.615 407.211 190.808 406.728 190.603" fill="#211F1D"/>
<path d="M404.098 194.09C404.098 194.09 440.687 150.899 457.295 151.104L465.741 154.695L482.287 175.47L416.052 208.34L404.098 194.09" fill="#534F55"/>
</svg>
