<svg width="738" height="726" viewBox="0 0 738 726" fill="none" xmlns="http://www.w3.org/2000/svg">
<path d="M612.842 543.69C591.07 542.62 574.255 521.171 575.32 504.366C576.431 486.98 591.158 473.761 597.469 457.791C610.942 422.993 582.608 389.644 598.663 355.552C616.998 316.921 665.568 312.907 695.705 286.479C702.707 280.434 705.86 272.454 711.551 266.336C721.468 255.776 728.254 263.66 729.54 274.769C731.043 292.864 715.281 311.854 705.082 326.464C694.127 342.786 683.815 359.141 681.278 378.195C679.518 395.548 689.344 407.651 690.951 424.004C691.677 433.343 691.709 443.225 691.162 451.917C690.584 461.187 684.898 467.302 679.765 475.192C668.872 490.348 662.743 500.801 651.852 515.957C647.461 522.72 646.257 536.466 641.19 543.192C636.211 548.763 618.962 551.541 612.842 543.69" fill="#213D21"/>
<path d="M719.979 280.691C718.009 304.566 696.694 323.59 678.284 339.309C669.153 347.105 660.637 355.426 653.461 364.676C645.605 374.799 639.567 386.23 634.574 397.632C624.385 420.881 621.574 445.761 626.357 470.291C629.027 483.949 630.969 497.456 628.321 511.263C625.793 524.556 617.568 536.466 611.205 548.551C605.369 559.618 601.399 570.814 600.065 582.971C598.743 595.098 599.784 607.377 601.913 619.384C604.153 631.912 607.985 644.211 612.445 656.258C614.487 661.756 616.717 667.195 619.034 672.605C621.65 678.744 624.85 684.999 626.453 691.408C626.796 692.785 629.227 692.321 628.88 690.947C627.591 685.823 625.235 680.77 623.093 675.873C620.18 669.235 617.418 662.549 614.878 655.798C610.152 643.252 606.39 630.409 604.057 617.354C601.676 603.961 601.261 590.314 603.363 576.873C605.445 563.58 612.292 551.379 618.868 539.437C625.283 527.802 630.654 516.63 631.918 503.62C633.189 490.569 630.09 477.912 627.919 465.089C623.462 438.649 629.384 412.357 641.746 388.166C647.222 377.457 653.776 367.313 662.037 358.064C670.174 348.945 679.889 341.257 689.242 333.127C704.947 319.485 720.807 300.811 722.458 280.82C722.573 279.416 720.093 279.297 719.979 280.691" fill="#18161D"/>
<path d="M584.341 536.606C606.117 535.539 622.924 514.09 621.865 497.295C620.761 479.906 606.021 466.676 599.718 450.713C586.259 415.909 614.581 382.558 598.52 348.475C580.182 309.843 531.623 305.831 501.489 279.399C494.484 273.347 491.326 265.368 485.645 259.256C475.711 248.696 468.928 256.576 467.651 267.693C466.15 285.784 481.918 304.774 492.109 319.388C503.064 335.712 513.371 352.06 515.907 371.111C517.67 388.464 507.853 400.571 506.238 416.924C505.507 426.259 505.469 436.141 506.027 444.839C506.613 454.107 512.306 460.218 517.426 468.106C528.329 483.264 534.443 493.716 545.338 508.878C549.728 515.646 550.935 529.382 555.997 536.116C560.976 541.679 578.224 544.456 584.341 536.606" fill="#6E8427"/>
<path d="M477.212 273.616C479.182 297.481 500.496 316.512 518.9 332.234C528.032 340.028 536.542 348.351 543.73 357.593C551.588 367.718 557.606 379.146 562.615 390.551C572.816 413.794 575.611 438.677 570.822 463.208C568.17 476.875 566.22 490.376 568.866 504.176C571.41 517.476 579.623 529.382 585.986 541.475C591.818 552.537 595.79 563.735 597.126 575.896C598.448 588.023 597.411 600.298 595.266 612.3C593.033 624.842 589.202 637.13 584.74 649.182C582.706 654.673 580.473 660.115 578.152 665.53C575.538 671.669 572.337 677.925 570.732 684.321C570.389 685.707 567.963 685.24 568.312 683.87C569.596 678.74 571.951 673.679 574.092 668.796C577.007 662.164 579.781 655.475 582.323 648.711C587.039 636.165 590.799 623.332 593.126 610.276C595.523 596.875 595.928 583.234 593.82 569.783C591.744 556.493 584.897 544.3 578.315 532.35C571.903 520.722 566.535 509.546 565.273 496.543C564.015 483.485 567.101 470.831 569.257 458.004C573.737 431.572 567.795 405.272 555.439 381.082C549.967 370.376 543.409 360.237 535.156 350.987C527.017 341.865 517.298 334.174 507.949 326.047C492.244 312.408 476.381 293.731 474.732 273.74C474.62 272.342 477.087 272.218 477.212 273.616" fill="#18161D"/>
<path d="M554.107 600.938C571.944 600.178 585.579 582.865 584.614 569.244C583.605 555.143 571.452 544.354 566.176 531.393C554.952 503.125 577.958 476.214 564.603 448.52C549.351 417.126 509.534 413.646 484.689 392.088C478.905 387.147 476.277 380.666 471.587 375.676C463.384 367.078 457.883 373.442 456.886 382.441C455.769 397.093 468.798 412.558 477.234 424.45C486.322 437.725 494.862 451.029 497.046 466.486C498.601 480.559 490.623 490.324 489.403 503.573C488.851 511.132 488.893 519.148 489.381 526.199C489.925 533.708 494.619 543.809 498.874 550.226C507.889 562.56 512.969 565.952 521.984 578.289C525.617 583.782 526.69 594.932 530.869 600.411C534.999 604.946 549.136 607.28 554.107 600.938Z" fill="#213D21"/>
<path d="M562.621 654.396C563.614 645.581 563.52 636.682 562.068 627.877C560.282 617.097 554.607 607.17 549.142 597.471C543.824 588.014 539.353 578.931 538.233 568.367C537.13 557.792 539.591 547.547 541.279 537.168C544.781 515.759 539.768 494.416 529.489 474.748C524.957 466.048 519.515 457.801 512.708 450.264C505.973 442.829 497.969 436.556 490.262 429.922C477.32 418.796 464.207 403.592 462.738 387.371C462.63 386.24 464.66 386.157 464.768 387.283C466.518 406.642 484.097 422.163 499.271 434.98C506.794 441.343 513.831 448.124 519.759 455.662C526.257 463.899 531.266 473.188 535.439 482.462C543.921 501.345 546.376 521.53 542.595 541.383C540.484 552.45 538.99 563.385 541.228 574.585C543.391 585.38 550.192 595.062 555.484 604.892C560.328 613.895 563.648 622.974 564.81 632.836C565.661 640.078 565.456 647.376 564.621 654.598C563.967 654.524 563.297 654.46 562.621 654.396" fill="#18161D"/>
<path d="M631.81 618.573C645.583 626.475 666.715 620.03 674.619 609.403C682.79 598.406 680.562 584.582 684.851 572.409C694.367 545.977 728.549 536.817 736.132 509.805C744.644 479.138 717.171 457.633 712.298 429.754C711.122 423.334 713.267 417.246 712.916 411.296C712.256 400.981 704.115 403.113 697.696 409.362C687.581 419.774 687.505 437.495 686.263 450.373C684.624 464.596 682.558 478.576 674.397 491.146C666.655 502.388 654.524 505.893 645.224 515.197C640.026 520.59 634.983 526.58 630.897 532.075C626.534 537.938 623.651 547.702 622.746 554.515C621.675 567.998 623.292 572.939 622.202 586.422C621.432 592.249 615.169 601.08 614.826 607.152C615.025 612.493 624.102 620.944 631.81 618.573Z" fill="#6E8427"/>
<path d="M604.316 662.508C610.633 656.406 616.196 649.718 620.694 642.458C626.18 633.569 628.225 623.466 630.319 613.628C632.331 604.043 634.751 595.144 640.612 586.74C646.476 578.313 654.797 571.837 662.631 564.898C678.788 550.577 688.564 532.269 693.358 512.716C695.479 504.075 696.656 495.331 696.353 486.474C696.049 477.737 694.047 469.25 692.494 460.642C689.894 446.196 689.753 428.622 698.925 415.817C699.567 414.921 701.13 415.825 700.488 416.71C689.545 431.997 692.821 451.925 696.014 468.696C697.593 477.019 698.542 485.409 698.195 493.85C697.824 503.084 695.669 512.401 692.911 521.29C687.278 539.417 676.325 555.636 660.93 568.669C652.358 575.924 644.322 583.372 638.903 592.797C633.675 601.874 632.612 612.336 630.327 622.18C628.239 631.193 624.963 639.551 619.594 647.467C615.646 653.274 610.876 658.625 605.678 663.612C605.223 663.251 604.773 662.869 604.316 662.508" fill="#18161D"/>
<path d="M550.204 639.088C536.432 646.986 515.314 640.548 507.402 629.91C499.231 618.913 501.462 605.099 497.171 592.916C487.646 566.49 453.462 557.334 445.889 530.312C437.389 499.647 464.857 478.151 469.716 450.271C470.897 443.843 468.761 437.753 469.094 431.803C469.764 421.499 477.896 423.63 484.334 429.875C494.441 440.282 494.525 458.004 495.765 470.891C497.396 485.108 499.462 499.083 507.613 511.667C515.376 522.905 527.497 526.4 536.791 535.71C541.985 541.098 547.04 547.093 551.123 552.581C555.484 558.449 558.377 568.219 559.267 575.029C560.359 588.516 558.73 593.451 559.823 606.938C560.585 612.77 566.852 621.599 567.208 627.669C566.987 633.011 557.931 641.461 550.204 639.088" fill="#6E8427"/>
<path d="M577.707 683.025C571.386 676.924 565.819 670.236 561.333 662.974C555.843 654.085 553.784 643.98 551.712 634.14C549.694 624.561 547.279 615.658 541.419 607.253C535.551 598.831 527.224 592.349 519.4 585.408C503.227 571.089 493.461 552.787 488.661 533.238C486.53 524.584 485.373 515.843 485.676 506.986C485.972 498.246 487.975 489.754 489.525 481.16C492.123 466.704 492.266 449.129 483.106 436.328C482.452 435.439 480.889 436.332 481.529 437.227C492.47 452.507 489.204 472.433 486.005 489.218C484.43 497.536 483.485 505.927 483.824 514.365C484.197 523.601 486.352 532.909 489.114 541.802C494.743 559.933 505.7 576.144 521.091 589.18C529.659 596.44 537.701 603.885 543.118 613.305C548.354 622.387 549.407 632.85 551.686 642.698C553.784 651.71 557.06 660.069 562.437 667.981C566.377 673.787 571.145 679.137 576.347 684.13C576.798 683.769 577.256 683.382 577.707 683.025" fill="#18161D"/>
<path d="M32.2722 722.436C23.5387 722.436 14.9847 723.363 6.70979 725.114C-0.653857 718.302 -2.96083 724.36 4.93919 713.202C18.508 694.04 49.5916 671.445 69.0964 658.374C92.9938 642.359 95.4265 602.735 122.337 592.57C138.657 586.405 162.204 591.731 169.845 576.048C172.522 570.537 171.964 564.055 171.071 557.989C168.064 537.559 165.418 530.538 156.457 511.933C152.495 503.71 132.478 472.921 130.119 464.104C121.944 433.529 151.767 435.182 163.57 437.571C182.694 441.443 197.497 447.477 218.933 458.23C253.01 475.322 270.87 484.622 311.931 503.836C399.535 544.819 483.403 593.741 574.133 627.249C593.837 634.527 613.97 641.496 634.923 643.019L668.481 717.926C670.102 719.307 670.289 720.819 669.579 722.436H32.2722" fill="#2E2D2D"/>
<path d="M181.84 530.223C231.167 570.859 282.022 609.623 334.276 646.42C340.782 651 347.31 655.546 353.86 660.064C354.582 660.563 353.896 661.751 353.166 661.249C300.997 625.242 250.181 587.287 200.847 547.484C194.159 542.088 187.503 536.655 180.871 531.192C180.187 530.629 181.162 529.666 181.84 530.223Z" fill="white"/>
<path d="M229.442 596.753C236.898 603.658 244.353 610.561 251.81 617.462C252.46 618.065 251.489 619.032 250.841 618.431C243.382 611.53 235.929 604.627 228.473 597.724C227.823 597.122 228.794 596.155 229.442 596.753" fill="white"/>
<path d="M180.507 594.255C198.941 616.172 217.377 638.088 235.815 660.003C236.379 660.673 235.414 661.65 234.844 660.972C216.408 639.057 197.974 617.141 179.538 595.226C178.973 594.554 179.936 593.579 180.507 594.255" fill="#FAF9F2"/>
<path d="M113.492 645.162C119.083 646.965 124.672 648.769 130.265 650.574C131.103 650.845 130.744 652.169 129.898 651.896C124.309 650.091 118.718 648.289 113.125 646.484C112.288 646.213 112.647 644.889 113.492 645.162Z" fill="white"/>
<path d="M199.304 536.628C191.418 531.312 183.529 525.998 175.643 520.68C174.916 520.189 175.6 519.001 176.335 519.498C184.221 524.813 192.111 530.127 199.997 535.443C200.725 535.934 200.039 537.122 199.304 536.628" fill="white"/>
<path d="M484.005 649.709C457.071 633.432 430.136 617.156 403.202 600.879C402.446 600.423 403.136 599.236 403.894 599.695C430.828 615.973 457.763 632.25 484.699 648.525C485.455 648.981 484.765 650.168 484.005 649.709" fill="white"/>
<path d="M420.354 623.382C415.328 619.943 410.297 616.503 405.268 613.062C404.544 612.567 405.228 611.377 405.962 611.877C410.989 615.319 416.018 618.758 421.048 622.2C421.772 622.695 421.086 623.883 420.354 623.382" fill="white"/>
<path d="M118.503 655.591C115.901 654.983 113.295 654.373 110.691 653.764C109.829 653.565 110.196 652.241 111.055 652.442C113.66 653.051 116.264 653.661 118.87 654.269C119.731 654.468 119.364 655.79 118.503 655.591" fill="white"/>
<path d="M362.715 89.0682H418.103L487.206 149.134C495.149 156.037 494.184 168.649 485.283 174.261L468.381 184.931L494.579 252.917C498.705 263.632 490.793 275.159 479.309 275.159H362.715L331.197 96.8824L362.715 89.0682" fill="#333232"/>
<path d="M291.681 104.94C291.681 104.94 308.979 99.939 314.358 140.5C315.914 152.218 318.585 230.877 318.585 230.877L269.684 218.202L270.496 149.905C270.496 149.905 272.966 109.011 291.681 104.94" fill="#B5BD79"/>
<path d="M191.959 214.914L278.102 207.877C278.102 207.877 298.554 205.034 302.049 207.642C305.543 210.256 327.53 219.636 308.966 248.659C308.966 248.659 296.137 251.23 292.115 251.104C288.09 250.976 192.165 243.138 192.165 243.138C192.165 243.138 182.261 245.997 174.122 242.442C165.974 238.893 162.85 235.272 162.85 235.272C162.85 235.272 156.294 228.207 157.38 225.978C158.469 223.745 158.469 223.745 158.469 223.745C158.469 223.745 154.986 219.392 156.192 216.908C157.402 214.429 157.402 214.429 157.402 214.429C157.402 214.429 154.328 211.72 156.316 210.439C158.3 209.157 164.744 212.047 164.744 212.047L171.958 212.541L171.462 208.94C171.462 208.94 177.487 205.572 180.329 206.709C183.186 207.851 191.959 214.914 191.959 214.914" fill="#ECA355"/>
<path d="M214.992 247.648L214.787 247.531C214.382 247.244 214.306 246.721 214.619 246.378L222.081 238.189C222.4 237.838 222.988 237.794 223.387 238.083C223.79 238.373 223.861 238.893 223.546 239.24L216.083 247.425C215.82 247.716 215.371 247.798 214.992 247.648" fill="#211F1D"/>
<path d="M223.047 249.978L222.84 249.863C222.431 249.574 222.359 249.055 222.678 248.712L230.143 240.521C230.456 240.174 231.045 240.13 231.443 240.417C231.848 240.707 231.916 241.223 231.599 241.568L224.14 249.761C223.87 250.05 223.424 250.13 223.047 249.978Z" fill="#211F1D"/>
<path d="M231.466 251.569L231.257 251.454C230.85 251.163 230.782 250.648 231.091 250.295L238.556 242.108C238.871 241.765 239.464 241.721 239.862 242.006C240.263 242.294 240.333 242.812 240.016 243.157L232.559 251.346C232.293 251.639 231.837 251.721 231.466 251.569" fill="#211F1D"/>
<path d="M290.361 212.566C290.297 212.37 290.283 212.153 290.347 211.95C290.481 211.501 290.921 211.277 291.328 211.455C297.346 214.147 311.409 220.392 311.409 220.392L310.921 222.027C310.921 222.027 296.851 215.78 290.836 213.1C290.614 212.998 290.451 212.795 290.361 212.566" fill="#211F1D"/>
<path d="M273.837 190.711L273.808 190.626C269.463 175.003 271.485 164.726 273.947 158.852C276.645 152.424 280.374 149.766 280.525 149.656C280.88 149.405 281.363 149.542 281.602 149.961C281.843 150.38 281.755 150.92 281.401 151.173C280.82 151.58 267.315 161.53 275.281 190.185C275.417 190.653 275.193 191.136 274.787 191.258C274.4 191.371 273.985 191.128 273.837 190.711" fill="#211F1D"/>
<path d="M270.639 191.095C270.639 191.095 312.432 188.823 321.365 199.326L324.143 206.697L322.627 229.145L269.921 206.867L270.639 191.095Z" fill="#534F55"/>
<path d="M187.838 539.256L186.711 553.271L184.333 539.455L166.01 216.19L169.518 215.989L187.838 539.256Z" fill="#321C2C"/>
<path d="M174.594 538.195C174.512 536.743 179.543 535.276 185.834 534.921C192.127 534.562 197.295 535.449 197.371 536.903C197.459 538.352 192.422 539.822 186.133 540.175C179.842 540.534 174.678 539.646 174.594 538.195" fill="#321C2C"/>
<path d="M156.639 190.353L172.846 189.434L172.754 234.264L165.743 234.663L160.906 195.825L156.639 190.353" fill="#21201F"/>
<path d="M179.576 206.476C179.576 206.476 165.887 208.313 165.445 212.047C165.006 215.782 167.446 215.927 177.516 213.722C187.583 211.517 179.576 206.476 179.576 206.476" fill="#ECA355"/>
<path d="M510.826 640.908L457.928 536.427L505.536 529.818L531.985 646.2L510.826 640.908" fill="#F2A67C"/>
<path d="M463.221 439.889C505.072 475.712 529.94 582.181 527.581 592.416C524.931 603.877 487.02 599.471 487.02 599.471L426.43 496.511C422.666 490.611 421.689 483.299 423.9 476.659C426.811 467.912 431.93 462.199 440.027 461.049L463.221 439.889Z" fill="#414042"/>
<path d="M446.028 283.833C464.534 319.541 447.53 366.683 448.062 390.641C448.81 424.502 474.155 461.749 479.088 461.049C467.567 468.546 462.137 478.508 450.624 486.001C449.37 486.823 454.148 518.534 442.054 513.946C433.831 510.826 418.749 482.35 407.549 469.766C380.87 439.809 350.686 392.471 347.804 352.572C346.161 329.985 359.224 256.727 392.256 257.62C401.36 257.864 407.33 255.778 411.762 253.692C423.846 248.006 424.5 242.321 446.028 283.833" fill="#414042"/>
<path d="M532.957 671.786L532.378 675.947C530.943 686.296 526.851 696.09 520.504 704.385L510.632 704.331L492.252 690.938C492.252 690.938 493.287 687.376 491.736 686.242C490.43 685.293 486.681 686.866 484.9 685.566C481.036 682.748 476.753 679.626 475.036 678.376C471.591 675.861 438.174 651.485 438.174 651.485C438.174 651.485 440.39 646.698 442.453 645.996C443.516 645.637 447.524 646.594 450.036 647.454C461.679 651.428 495.536 662.041 507.562 655.479C522.183 647.491 532.957 671.786 532.957 671.786" fill="#9FA46A"/>
<path d="M441.47 646.634C439.739 648.127 438.174 651.485 438.174 651.485C438.174 651.485 471.59 675.861 475.036 678.375C476.753 679.626 481.036 682.748 484.9 685.565C486.681 686.866 490.429 685.292 491.735 686.241C493.287 687.376 492.252 690.937 492.252 690.937L516.929 708.935L520.504 704.384L441.47 646.634" fill="#E5F6F9"/>
<path d="M517.707 674.466C503.68 669.028 492.29 662.976 495.838 657.663C501.132 649.723 497.164 635.177 491.435 611.81C493.894 617.638 504.21 623.718 512.593 625.036C519.089 626.067 527.513 624.15 529.783 620.192C535.074 636.058 535.92 671.68 531.547 681.901C529.338 687.067 517.707 674.466 517.707 674.466" fill="#9FA46A"/>
<path d="M482.378 663.345C481.545 663.642 480.976 662.199 480.446 660.027C479.158 654.749 479.238 655.288 480.446 655.443C481.281 655.565 482.233 655.76 482.926 658.875C483.413 661.062 483.218 663.05 482.378 663.345Z" fill="#E5F6F9"/>
<path d="M489.104 664.565C488.264 664.86 487.696 663.418 487.172 661.241C485.879 655.971 485.957 656.505 487.166 656.671C488.005 656.782 488.962 656.972 489.658 660.08C490.14 662.276 489.929 664.276 489.104 664.565" fill="#E5F6F9"/>
<path d="M495.67 665.152C494.83 665.447 494.258 664.01 493.728 661.832C492.444 656.56 492.523 657.091 493.734 657.258C494.573 657.368 495.53 657.563 496.218 660.672C496.711 662.861 496.501 664.855 495.67 665.152" fill="#E5F6F9"/>
<path d="M504.545 664.408C503.747 664.793 503.02 663.433 502.246 661.325C500.378 656.239 500.513 656.757 501.733 656.775C502.587 656.797 503.55 656.883 504.587 659.898C505.321 662.015 505.339 664.023 504.545 664.408" fill="#E5F6F9"/>
<path d="M515.569 651.905L515.563 651.72C515.776 651.714 515.99 651.71 516.205 651.71C518.018 651.71 519.866 651.951 521.473 652.83C523.188 653.769 524.55 655.56 524.554 657.536L524.544 657.831C524.424 659.554 523.27 661.059 521.814 661.929C520.356 662.792 518.644 663.089 516.975 663.123L516.67 663.125C514.692 663.125 512.686 662.764 510.935 661.815C508.628 660.559 504.993 658.896 503.041 657.251L502.919 657.147L503.005 657.012C505.4 653.217 511.432 651.847 515.563 651.72L515.569 651.905L515.573 652.088C511.505 652.198 505.555 653.61 503.318 657.209L503.161 657.109L503.28 656.97C505.161 658.559 508.79 660.23 511.111 661.49C512.791 662.401 514.736 662.756 516.67 662.756L516.967 662.754C518.598 662.72 520.247 662.429 521.625 661.612C522.996 660.792 524.071 659.374 524.175 657.805L524.185 657.536C524.189 655.739 522.915 654.039 521.296 653.155C519.77 652.318 517.986 652.078 516.205 652.078C515.994 652.078 515.784 652.083 515.573 652.088L515.569 651.905" fill="#E5F6F9"/>
<path d="M496.095 644.265L495.909 644.277C495.897 644.059 495.891 643.838 495.891 643.617C495.893 641.876 496.29 639.986 497.775 639.003C498.595 638.464 499.564 638.333 500.521 638.333C500.952 638.333 501.382 638.359 501.799 638.391C503.147 638.498 504.599 638.636 505.743 639.469C506.854 640.281 507.448 641.613 507.691 642.935C507.793 643.489 507.839 644.047 507.839 644.604C507.839 646.723 507.173 648.829 506.341 650.777C505.773 652.099 505.267 653.638 504.678 654.861C504.09 656.071 503.422 657.026 502.413 657.042C501.608 657.034 500.746 656.416 499.69 654.992C497.424 651.936 496.122 648.049 495.909 644.277L496.095 644.265L496.278 644.255C496.487 647.96 497.769 651.784 499.987 654.771C501.018 656.171 501.825 656.681 502.413 656.673C503.135 656.689 503.773 655.901 504.345 654.699C504.918 653.511 505.426 651.973 506.002 650.631C506.824 648.707 507.47 646.644 507.47 644.604C507.47 644.067 507.426 643.533 507.328 643.001C507.097 641.738 506.529 640.498 505.526 639.766C504.493 639.011 503.115 638.863 501.771 638.757C501.359 638.728 500.938 638.702 500.521 638.702C499.596 638.702 498.705 638.831 497.979 639.312C496.663 640.169 496.26 641.92 496.26 643.617C496.26 643.832 496.266 644.045 496.278 644.255L496.095 644.265Z" fill="#E5F6F9"/>
<path d="M334.18 531.832L302.189 532.48C295.721 521.23 289.36 493.566 283.016 474.119C295.697 473.589 317.694 470.213 327.489 470.113C328.354 491.293 334.18 531.832 334.18 531.832" fill="#F2A67C"/>
<path d="M340.943 548.179L341.001 552.382C341.133 562.826 338.566 573.125 333.538 582.285L323.765 583.717L303.591 573.237C303.591 573.237 304.077 569.56 302.362 568.676C300.929 567.927 297.463 570.05 295.507 569.035C291.262 566.832 286.558 564.385 284.676 563.41C280.891 561.442 244.189 542.376 244.189 542.376C244.189 542.376 245.656 537.306 247.589 536.299C248.59 535.786 252.697 536.127 255.307 536.606C267.416 538.783 302.49 544.179 313.387 535.878C326.635 525.781 340.943 548.179 340.943 548.179" fill="#9FA46A"/>
<path d="M246.712 537.078C245.23 538.815 244.189 542.376 244.189 542.376C244.189 542.376 280.892 561.443 284.676 563.411C286.559 564.386 291.262 566.832 295.508 569.035C297.464 570.05 300.929 567.927 302.363 568.677C304.078 569.56 303.591 573.237 303.591 573.237L330.697 587.314L333.538 582.285L246.712 537.078" fill="#E5F6F9"/>
<path d="M326.27 553.128C311.589 549.866 301.448 546.795 301.436 540.395C301.414 530.64 297.906 527.618 291.735 510.864C295.043 516.246 309.806 519.678 318.187 517.474C328.856 514.667 331.526 513.363 333.175 509.102C336.256 529.38 341.548 536.429 341.109 555.83C340.978 561.443 326.27 553.128 326.27 553.128Z" fill="#9FA46A"/>
<path d="M289.677 547.443C288.893 547.87 288.112 546.526 287.258 544.46C285.193 539.439 285.356 539.958 286.576 539.93C287.422 539.924 288.383 539.97 289.541 542.947C290.353 545.03 290.459 547.03 289.677 547.443Z" fill="#E5F6F9"/>
<path d="M296.503 547.642C295.721 548.061 294.944 546.717 294.09 544.643C292.027 539.627 292.184 540.147 293.402 540.127C294.248 540.113 295.225 540.159 296.373 543.13C297.185 545.228 297.284 547.234 296.503 547.642" fill="#E5F6F9"/>
<path d="M303.086 547.234C302.299 547.647 301.521 546.317 300.666 544.237C298.6 539.23 298.757 539.735 299.984 539.715C300.833 539.701 301.8 539.753 302.947 542.726C303.77 544.815 303.864 546.815 303.086 547.234" fill="#E5F6F9"/>
<path d="M311.748 545.16C311.02 545.668 310.089 544.428 309.008 542.46C306.398 537.712 306.606 538.199 307.822 538.041C308.661 537.936 309.63 537.87 311.112 540.699C312.155 542.683 312.476 544.665 311.748 545.16Z" fill="#E5F6F9"/>
<path d="M320.761 531.142L320.729 530.961C321.686 530.786 322.671 530.666 323.652 530.666C324.701 530.666 325.746 530.803 326.741 531.166C328.669 531.876 330.352 533.563 330.527 535.653L330.541 536.002C330.539 537.593 329.668 539.11 328.447 540.113C327.137 541.19 325.488 541.734 323.841 542.019C323.022 542.161 322.184 542.241 321.347 542.241C320.099 542.241 318.853 542.063 317.67 541.639C315.206 540.747 311.357 539.649 309.186 538.317L309.048 538.231L309.112 538.085C310.905 533.97 316.667 531.711 320.727 530.961L320.761 531.142L320.795 531.324C316.793 532.048 311.118 534.335 309.451 538.231L309.282 538.159L309.379 538.002C311.471 539.29 315.315 540.398 317.796 541.292C318.93 541.698 320.135 541.872 321.347 541.872C322.16 541.872 322.978 541.794 323.78 541.655C325.389 541.377 326.976 540.847 328.212 539.828C329.363 538.885 330.174 537.453 330.172 536.002L330.158 535.685C330.007 533.784 328.435 532.181 326.613 531.513C325.67 531.17 324.669 531.035 323.652 531.035C322.701 531.035 321.738 531.152 320.795 531.324L320.761 531.142" fill="#E5F6F9"/>
<path d="M300.359 526.522L300.177 526.56C300.04 525.9 299.948 525.196 299.948 524.5C299.946 523.214 300.265 521.938 301.232 521.064C302.291 520.117 303.778 519.96 305.118 519.852C305.579 519.818 306.049 519.788 306.522 519.788C307.435 519.788 308.352 519.9 309.178 520.331C310.404 520.967 311.19 522.191 311.629 523.459C311.999 524.532 312.149 525.647 312.149 526.769C312.149 528.33 311.86 529.908 311.469 531.411C311.092 532.859 310.817 534.528 310.396 535.85C310.185 536.51 309.938 537.088 309.607 537.514C309.278 537.939 308.841 538.218 308.303 538.216C307.553 538.212 306.674 537.714 305.533 536.583C302.827 533.907 300.959 530.26 300.177 526.56L300.359 526.522L300.538 526.484C301.304 530.115 303.146 533.704 305.792 536.322C306.905 537.429 307.73 537.851 308.303 537.847C308.709 537.846 309.024 537.656 309.313 537.287C310.191 536.181 310.546 533.519 311.11 531.319C311.497 529.832 311.778 528.285 311.778 526.769C311.778 525.678 311.632 524.606 311.278 523.581C310.861 522.368 310.115 521.23 309.008 520.66C308.261 520.269 307.405 520.157 306.522 520.157C306.065 520.157 305.603 520.187 305.146 520.221C303.812 520.323 302.412 520.494 301.479 521.34C300.622 522.111 300.317 523.268 300.317 524.5C300.317 525.162 300.405 525.844 300.538 526.484L300.359 526.522" fill="#E5F6F9"/>
<path d="M304.602 379.85C340.623 421.535 333.215 481.404 333.022 491.91C332.926 497.333 289.651 502.503 289.651 502.503L247.91 407.119C245.073 400.71 245.202 393.343 248.385 387.108C252.568 378.901 258.494 374.012 266.669 374.085L304.602 379.85" fill="#534F55"/>
<path d="M418.345 345.667C396.846 356.263 365.19 368.097 342.702 376.394C320.22 384.687 305.892 410.801 293.47 422.127C282.429 413.952 265.273 420.239 254.225 412.062C253.024 411.17 245.762 400.182 245.009 398.897C235.749 383.022 238.449 375.429 246.331 360.54C265.096 325.08 307.02 285.773 343.41 269.147C364.003 259.736 422.857 243.338 439.413 271.933C453.962 297.059 457.926 326.156 418.345 345.667" fill="#534F55"/>
<path d="M407.135 297.674C387.221 323.996 339.933 351.126 302.171 361.937C291.265 365.058 283.225 374.515 282.74 385.819C282.714 386.441 282.702 387.057 282.702 387.665C282.698 402.939 290.902 414.041 299.19 426.517C307.473 438.983 315.808 452.823 315.804 473.479C315.804 478.611 315.292 484.16 314.137 490.214L313.411 490.076C314.556 484.065 315.066 478.561 315.066 473.479C315.062 453.033 306.845 439.382 298.576 426.926C290.313 414.482 281.967 403.228 281.963 387.665C281.963 387.045 281.975 386.419 282.003 385.787C282.503 374.142 290.778 364.428 301.968 361.227C339.576 350.478 386.828 323.333 406.545 297.228L407.135 297.674" fill="white"/>
<path d="M375.379 326.623C374.117 326.99 372.735 327.153 371.283 327.153C364.257 327.145 355.523 323.359 350.423 319.782C344.243 315.439 340.204 308.231 339.721 300.702L340.459 300.654C340.924 307.952 344.858 314.972 350.847 319.178C355.82 322.681 364.516 326.424 371.283 326.416C372.681 326.416 373.993 326.256 375.172 325.913L375.379 326.623Z" fill="white"/>
<path d="M287.348 110.511C287.348 110.511 283.783 132.927 290.945 175.895C294.885 199.527 306.426 231.757 306.426 231.757L329.333 276.529L440.537 269.564C440.537 269.564 428.232 167.436 418.129 140.578C405.316 106.519 395.077 76.7338 338.218 91.6425C326.651 94.6793 332.768 116.445 332.768 116.445L287.348 110.511" fill="#9FA46A"/>
<path d="M335.953 279.744C335.668 279.702 335.405 279.5 335.251 279.167C335.125 278.882 331.993 272.087 329.481 262.578C326.079 249.715 325.517 238.622 327.804 229.618C332.992 209.22 317.333 154.829 317.176 154.282C316.982 153.628 317.262 152.869 317.798 152.58C318.328 152.298 318.919 152.592 319.11 153.246C319.764 155.513 335.157 208.998 329.76 230.242C324.603 250.506 336.92 277.484 337.046 277.752C337.317 278.35 337.143 279.149 336.649 279.54C336.427 279.712 336.188 279.775 335.953 279.744" fill="#211F1D"/>
<path d="M273.183 21.555C256.251 32.9045 250.73 57.5756 264.107 73.7346C270.081 80.9487 279.257 85.6146 288.593 86.2108C300.329 86.9485 310.853 81.4053 318.278 72.5482C327.441 61.6094 331.099 45.8553 323.034 33.1219C316.161 22.2669 303.093 16.0019 290.395 16.3189C284.312 16.4745 278.258 18.1573 273.183 21.555" fill="#ECA355"/>
<path d="M290.212 55.911C289.97 57.3028 288.644 58.228 287.249 57.9887C285.857 57.7414 284.922 56.4155 285.173 55.0237C285.414 53.6299 286.742 52.6987 288.136 52.9479C289.528 53.1872 290.457 54.5153 290.212 55.911Z" fill="#131210"/>
<path d="M272.603 64.4375C272.988 64.4375 273.389 64.1823 273.321 63.7457C272.711 59.8315 272.819 56.0928 273.902 52.2664C273.997 51.9315 273.746 51.7301 273.483 51.7301C273.299 51.7301 273.112 51.8278 273.034 52.0471C271.664 55.8974 271.26 59.9252 271.969 63.9609C272.029 64.2899 272.31 64.4375 272.603 64.4375" fill="#D75C32"/>
<path d="M300.393 67.6895C303.888 67.6895 306.985 65.183 307.613 61.6218C308.311 57.628 305.649 53.8255 301.655 53.1217C301.226 53.0459 300.802 53.01 300.381 53.01C296.882 53.01 293.785 55.5184 293.153 59.0835C292.459 63.0754 295.123 66.8779 299.117 67.5778C299.546 67.6516 299.972 67.6895 300.393 67.6895" fill="#D75C32"/>
<path d="M274.972 77.0073C275.056 77.0073 275.138 77.0053 275.219 77.0033C278.013 76.9355 280.583 75.6116 282.278 73.3684C282.531 73.0274 282.573 72.5887 282.38 72.2139C282.188 71.841 281.797 71.6456 281.412 71.6456C281.107 71.6456 280.806 71.7692 280.611 72.0304C279.253 73.8669 277.187 74.9496 274.942 75.0034C274.892 75.0034 274.84 75.0034 274.791 75.0034C274.458 75.0034 274.123 74.9815 273.784 74.9396L273.63 74.9296C273.112 74.9396 272.693 75.3444 272.653 75.8608C272.617 76.3613 272.948 76.794 273.449 76.8737C273.957 76.9595 274.467 77.0073 274.972 77.0073" fill="#ED863A"/>
<path d="M298.678 47.123C300.51 49.739 301.22 52.9134 300.666 56.0619C300.113 59.2083 298.371 61.96 295.744 63.7924C293.81 65.1543 291.537 65.902 289.174 65.9578C285.161 66.0535 281.388 64.1493 279.081 60.8633C275.295 55.4617 276.605 47.9844 282.006 44.1999C283.948 42.8361 286.221 42.0863 288.584 42.0325C292.604 41.9348 296.373 43.837 298.678 47.123ZM296.287 64.5541C299.102 62.5721 300.989 59.6151 301.581 56.2174C302.177 52.8317 301.421 49.4041 299.437 46.5927C296.961 43.0514 292.893 40.9976 288.566 41.1013C286.016 41.1592 283.571 41.9666 281.48 43.4382C275.651 47.5218 274.242 55.5734 278.321 61.4037C280.804 64.9409 284.869 66.9887 289.198 66.887C291.739 66.8252 294.193 66.0216 296.287 64.5541Z" fill="white"/>
<path d="M260.988 41.2255C267.484 42.366 271.843 48.5792 270.699 55.0834C269.718 60.6824 264.888 64.8438 259.211 64.9754C258.432 64.9994 257.632 64.9335 256.849 64.798C253.696 64.2496 250.955 62.4989 249.116 59.8848C247.284 57.2668 246.578 54.0905 247.132 50.948C248.117 45.345 252.948 41.1817 258.623 41.0481C259.411 41.0321 260.204 41.0839 260.988 41.2255ZM271.62 55.2409C272.85 48.2402 268.15 41.5386 261.148 40.3123C260.306 40.1668 259.445 40.0989 258.599 40.1189C252.482 40.2624 247.276 44.7508 246.215 50.7865C245.617 54.1762 246.38 57.5978 248.356 60.4193C250.338 63.2367 253.293 65.1189 256.685 65.7131C257.531 65.8627 258.388 65.9265 259.237 65.9066C265.351 65.759 270.557 61.2766 271.62 55.2409" fill="white"/>
<path d="M269.096 46.9661C272.091 45.2055 275.496 44.7569 278.549 46.683C279.157 47.0698 279.726 46.0589 279.091 45.698C275.837 43.8955 271.562 43.8795 268.729 46.5135C268.484 46.7508 268.817 47.1296 269.096 46.9661" fill="white"/>
<path d="M322.725 65.8625C326.231 84.5976 329.05 90.6652 332.472 100.111C329.71 110.722 328.392 119.145 319.732 124.768C314.095 128.432 306.951 131.035 300.688 128.58C294.752 126.255 291.323 120.138 288.635 114.357C288.06 113.129 287.49 111.865 287.349 110.511C287.175 108.812 287.7 107.125 288.132 105.47C289.823 98.9819 290.064 91.712 286.717 85.8997C300.69 81.2219 311.651 75.579 322.725 65.8625" fill="#ECA355"/>
<path d="M319.311 71.6508C315.206 76.2967 310.299 80.2885 304.692 82.9485C299.097 85.5964 292.768 86.8606 286.614 86.079C286.906 86.4758 287.047 86.8985 287.195 87.3631C288.319 90.8266 289.45 94.3798 289.356 98.0208C289.356 98.0726 298.022 95.2911 298.827 94.9262C303.515 92.7886 308.001 89.6163 311.798 86.1408C315.65 82.6275 320.218 77.2538 319.311 71.6508" fill="#131210"/>
<path d="M265.558 54.1766C265.307 55.5703 263.987 56.5016 262.59 56.2603C261.198 56.011 260.269 54.687 260.516 53.2953C260.757 51.9015 262.083 50.9683 263.479 51.2136C264.873 51.4589 265.804 52.7848 265.558 54.1766Z" fill="#131210"/>
<path d="M325.225 72.3154C325.225 72.3154 310.927 59.5202 318.948 38.6874C318.948 38.6874 315.202 46.0291 310.608 44.2745C306.022 42.5278 310.38 34.588 310.38 34.588C310.38 34.588 290 52.0928 267.977 48.069C245.956 44.0472 232.116 17.3662 250.837 4.19215C262.115 -3.75173 271.197 1.16148 279.885 6.07257C285.616 9.31274 291.175 12.5528 297.077 12.1021C311.928 10.9636 319.068 13.6813 321.249 23.7408C321.249 23.7408 333.165 27.0966 332.605 44.8308C332.039 62.563 327.353 63.3087 327.969 68.3873C328.579 73.4599 325.867 72.447 325.225 72.3154" fill="#131210"/>
<path d="M315.365 129.193L329.437 91.8528L338.218 91.6433L342.718 146.868L315.365 129.193" fill="#D5DC8F"/>
<path d="M315.365 129.192L289.805 98.3516L285.107 108.473L290.782 144.402L315.365 129.192Z" fill="#D5DC8F"/>
<path d="M302.72 69.7542C302.72 69.7542 294.997 73.3254 287.775 70.5618C280.553 67.7962 275.736 62.6439 270.888 67.5789C266.045 72.5179 257.08 76.9026 252.333 74.795C252.333 74.795 263.198 82.2384 273.187 73.6146C273.187 73.6146 295.591 82.7747 302.72 69.7542Z" fill="#131210"/>
<path d="M326.485 55.2993C326.587 59.4248 323.319 62.8524 319.192 62.9501C315.066 63.0458 311.637 59.7797 311.537 55.6522C311.441 51.5208 314.711 48.1011 318.837 48.0014C322.966 47.9057 326.392 51.1698 326.485 55.2993" fill="#ECA355"/>
<path d="M321.439 57.9604C321.76 57.9604 322.087 57.6912 321.963 57.2925C321.212 54.8718 319.435 52.842 317.246 51.6057C317.178 51.5658 317.112 51.5499 317.05 51.5499C316.7 51.5499 316.488 52.0823 316.865 52.3056C317.76 52.848 318.512 53.498 319.136 54.2477C319.156 54.2118 319.174 54.1779 319.192 54.144C319.27 54.0004 319.389 53.9406 319.511 53.9406C319.77 53.9406 320.031 54.2118 319.876 54.5209C319.802 54.6645 319.734 54.81 319.67 54.9556C320.209 55.7472 320.63 56.6305 320.947 57.5995C321.03 57.8508 321.234 57.9604 321.439 57.9604" fill="#12110F"/>
<path d="M318.626 59.4624C318.881 59.4624 319.13 59.2968 319.092 58.9758C318.931 57.5701 319.112 56.2342 319.67 54.9561C319.505 54.7108 319.326 54.4735 319.136 54.2482C318.36 55.7177 318.002 57.3309 318.109 58.9978C318.127 59.3108 318.38 59.4624 318.626 59.4624Z" fill="#12110F"/>
<path d="M319.67 54.9565C319.734 54.811 319.802 54.6654 319.876 54.5218C320.031 54.2128 319.77 53.9416 319.511 53.9416C319.389 53.9416 319.269 54.0014 319.192 54.1449C319.174 54.1788 319.156 54.2127 319.136 54.2486C319.325 54.4739 319.505 54.7113 319.67 54.9565" fill="#100F0D"/>
<path d="M448.35 288.798L442.81 275.159H441.465C442.876 277.791 444.392 280.677 446.029 283.833C446.876 285.466 447.648 287.121 448.35 288.798" fill="#9BA18B"/>
<path d="M441.465 275.159H442.811L440.537 269.564L438.488 269.692C439.425 271.381 440.416 273.199 441.465 275.159" fill="#21201D"/>
<path d="M448.738 289.753L448.349 288.798C447.648 287.121 446.876 285.466 446.029 283.833C444.392 280.677 442.876 277.792 441.464 275.16C440.416 273.2 439.425 271.381 438.487 269.692L437.989 269.724C438.491 270.428 438.968 271.166 439.413 271.933C442.76 277.712 445.546 283.704 447.372 289.739C448.264 289.749 448.738 289.753 448.738 289.753Z" fill="#282824"/>
<path d="M447.373 289.739C445.546 283.704 442.761 277.712 439.413 271.933C438.968 271.166 438.492 270.428 437.989 269.724L336.328 276.091C336.76 277.128 337.028 277.714 337.045 277.752C337.317 278.35 337.143 279.149 336.649 279.54C336.465 279.684 336.268 279.752 336.072 279.752C336.033 279.752 335.993 279.75 335.953 279.744C335.668 279.702 335.404 279.5 335.251 279.167C335.203 279.06 334.723 278.013 334.007 276.236L329.333 276.529L318.574 283.351C318.629 288.204 433.505 289.59 447.373 289.739" fill="#34312E"/>
<path d="M336.073 279.751C336.268 279.751 336.465 279.684 336.649 279.54C337.143 279.149 337.317 278.35 337.046 277.752C337.028 277.714 336.76 277.127 336.328 276.091L334.007 276.236C334.723 278.013 335.203 279.06 335.251 279.167C335.405 279.5 335.668 279.702 335.953 279.744C335.993 279.75 336.033 279.751 336.073 279.751" fill="#1A1816"/>
<path d="M446.589 273.018C322.135 224.295 340.535 91.1538 340.742 89.7919L348.925 89.0701C348.876 89.3911 345.564 122.343 355.527 160.049C368.773 210.198 400.505 245.415 449.831 264.729L446.589 273.018" fill="#333232"/>
<path d="M305.858 248.947C270.453 127.717 275.683 121.783 277.576 119.047L285.107 108.474C285.302 108.194 285.103 108.478 285.107 108.474C284.792 109.219 284.04 137.846 318.19 254.751L305.858 248.947Z" fill="#333232"/>
<path d="M630.405 565.117L639.26 576.038L628.004 567.679L391.673 346.361L394.074 343.793L630.405 565.117" fill="#321C2C"/>
<path d="M620.086 573.488C619.025 572.493 621.655 567.961 625.962 563.361C630.269 558.761 634.622 555.836 635.681 556.837C636.744 557.824 634.112 562.364 629.805 566.958C625.498 571.56 621.149 574.479 620.086 573.488Z" fill="#321C2C"/>
<path d="M367.063 334.124L378.157 322.276L409.025 354.788L404.224 359.912L373.926 335.141L367.063 334.124" fill="#21201F"/>
<path d="M352.584 99.3471C352.584 99.3471 364.478 77.982 401.841 107.502C412.634 116.032 477.956 180.943 477.956 180.943L410.654 202.241L369.056 158.854C369.056 158.854 338.639 121.306 352.584 99.3471" fill="#B5BD79"/>
<path d="M398.403 322.346L419.832 214.498C419.832 214.498 423.471 188.724 427.904 184.788C432.336 180.85 451.552 155.038 480.763 182.469C480.763 182.469 479.451 198.766 477.888 203.73C476.329 208.699 433.196 326.394 433.196 326.394C433.196 326.394 433.247 339.103 426.033 348.654C418.823 358.205 413.276 361.523 413.276 361.523C413.276 361.523 402.303 368.566 399.939 366.885C397.574 365.196 397.574 365.196 397.574 365.196C397.574 365.196 390.998 368.849 388.37 366.973C385.736 365.097 385.736 365.097 385.736 365.097C385.736 365.097 381.335 368.488 380.456 365.834C379.572 363.18 385.373 355.635 385.373 355.635L388.511 346.77L383.897 346.834C383.897 346.834 381.857 338.854 384.256 335.496C386.647 332.141 398.403 322.346 398.403 322.346" fill="#ECA355"/>
<path d="M446.707 298.789L446.497 299.031C445.999 299.485 445.337 299.493 445.016 299.057L437.547 288.558C437.228 288.112 437.381 287.374 437.876 286.925C438.37 286.469 439.03 286.463 439.349 286.909L446.814 297.401C447.082 297.772 447.022 298.347 446.707 298.789" fill="#211F1D"/>
<path d="M452.383 289.163L452.174 289.404C451.675 289.861 451.014 289.871 450.698 289.426L443.229 278.924C442.91 278.48 443.062 277.746 443.554 277.303C444.055 276.841 444.711 276.831 445.028 277.279L452.497 287.775C452.76 288.146 452.7 288.718 452.383 289.163" fill="#211F1D"/>
<path d="M457.273 278.973L457.067 279.213C456.567 279.667 455.909 279.679 455.586 279.239L448.123 268.734C447.81 268.292 447.953 267.56 448.448 267.107C448.948 266.651 449.604 266.643 449.923 267.087L457.388 277.58C457.654 277.955 457.598 278.529 457.273 278.973" fill="#211F1D"/>
<path d="M452.736 196.412C452.519 196.311 452.333 196.135 452.226 195.9C451.994 195.375 452.222 194.753 452.742 194.504C460.421 190.885 478.34 182.381 478.34 182.381L479.196 184.277C479.196 184.277 461.272 192.775 453.598 196.404C453.31 196.536 452.999 196.528 452.736 196.412Z" fill="#211F1D"/>
<path d="M404.73 190.603L404.64 190.557C388.16 181.431 381.804 170.611 379.377 163.134C376.715 154.957 378.017 148.999 378.067 148.75C378.193 148.185 378.743 147.828 379.303 147.946C379.858 148.07 380.206 148.622 380.085 149.186C379.877 150.11 375.423 171.977 405.647 188.718C406.144 188.996 406.321 189.628 406.042 190.138C405.785 190.615 405.213 190.808 404.73 190.603" fill="#211F1D"/>
<path d="M402.1 194.09C402.1 194.09 438.689 150.899 455.296 151.104L463.743 154.695L480.289 175.47L414.054 208.34L402.1 194.09" fill="#534F55"/>
</svg>
