<svg width="193" height="52" viewBox="0 0 193 52" fill="none" xmlns="http://www.w3.org/2000/svg">
<g clip-path="url(#clip0)">
<path d="M24 23.3427L19.4142 33.6783H28.5858L24 23.3427Z" fill="#F0AF0A"/>
<path d="M35.9009 32.5682L24.8545 13.4354L26.0112 11.4319C26.2156 11.078 26.0943 10.6254 25.7404 10.421C25.3864 10.2166 24.9338 10.3379 24.7295 10.6919L24 11.9554L23.2705 10.6919C23.0662 10.338 22.6135 10.2166 22.2596 10.421C21.9057 10.6254 21.7845 11.078 21.9888 11.4319L23.1455 13.4354L12.0991 32.5682C11.9669 32.7972 11.9669 33.0793 12.0991 33.3083C12.2313 33.5372 12.4756 33.6782 12.74 33.6782H17.795L23.26 21.3612V13.4354H24.74V21.3612L30.205 33.6782H35.26C35.5244 33.6782 35.7687 33.5372 35.9009 33.3082C36.0331 33.0793 36.0331 32.7972 35.9009 32.5682Z" fill="#F0AF0A"/>
</g>
<path d="M56.264 34.384C54.904 34.384 53.712 34.016 52.688 33.28C51.68 32.544 50.976 31.528 50.576 30.232L53.552 29.008C53.76 29.776 54.096 30.352 54.56 30.736C55.024 31.12 55.592 31.312 56.264 31.312C57.016 31.312 57.6 31.072 58.016 30.592C58.432 30.112 58.64 29.44 58.64 28.576V16.816H61.88V28.552C61.88 29.512 61.728 30.36 61.424 31.096C61.136 31.816 60.736 32.424 60.224 32.92C59.728 33.4 59.136 33.76 58.448 34C57.776 34.256 57.048 34.384 56.264 34.384ZM71.9045 32.752H71.7125C71.3445 33.2 70.8965 33.584 70.3685 33.904C69.8565 34.224 69.1925 34.384 68.3765 34.384C67.7685 34.384 67.1925 34.28 66.6485 34.072C66.1205 33.88 65.6565 33.608 65.2565 33.256C64.8565 32.904 64.5445 32.48 64.3205 31.984C64.0965 31.488 63.9845 30.944 63.9845 30.352C63.9845 29.744 64.1045 29.2 64.3445 28.72C64.5845 28.224 64.9205 27.8 65.3525 27.448C65.7845 27.096 66.2885 26.832 66.8645 26.656C67.4565 26.464 68.0965 26.368 68.7845 26.368C69.5525 26.368 70.1845 26.432 70.6805 26.56C71.1765 26.672 71.5845 26.792 71.9045 26.92V26.56C71.9045 25.936 71.6565 25.424 71.1605 25.024C70.6645 24.608 70.0485 24.4 69.3125 24.4C68.2245 24.4 67.3045 24.856 66.5525 25.768L64.2725 24.208C65.5205 22.64 67.2245 21.856 69.3845 21.856C71.2085 21.856 72.6005 22.288 73.5605 23.152C74.5205 24 75.0005 25.264 75.0005 26.944V34H71.9045V32.752ZM71.9045 29.224C71.5365 29.048 71.1525 28.912 70.7525 28.816C70.3685 28.704 69.9445 28.648 69.4805 28.648C68.7285 28.648 68.1445 28.816 67.7285 29.152C67.3285 29.472 67.1285 29.872 67.1285 30.352C67.1285 30.832 67.3205 31.216 67.7045 31.504C68.1045 31.792 68.5605 31.936 69.0725 31.936C69.4885 31.936 69.8725 31.864 70.2245 31.72C70.5765 31.56 70.8725 31.36 71.1125 31.12C71.3685 30.864 71.5605 30.576 71.6885 30.256C71.8325 29.92 71.9045 29.576 71.9045 29.224ZM76.0179 22.24H79.5939L82.5219 29.728H82.6899L85.6419 22.24H89.1939L84.1299 34H81.0339L76.0179 22.24ZM97.6389 32.752H97.4469C97.0789 33.2 96.6309 33.584 96.1029 33.904C95.5909 34.224 94.9269 34.384 94.1109 34.384C93.5029 34.384 92.9269 34.28 92.3829 34.072C91.8549 33.88 91.3909 33.608 90.9909 33.256C90.5909 32.904 90.2789 32.48 90.0549 31.984C89.8309 31.488 89.7189 30.944 89.7189 30.352C89.7189 29.744 89.8389 29.2 90.0789 28.72C90.3189 28.224 90.6549 27.8 91.0869 27.448C91.5189 27.096 92.0229 26.832 92.5989 26.656C93.1909 26.464 93.8309 26.368 94.5189 26.368C95.2869 26.368 95.9189 26.432 96.4149 26.56C96.9109 26.672 97.3189 26.792 97.6389 26.92V26.56C97.6389 25.936 97.3909 25.424 96.8949 25.024C96.3989 24.608 95.7829 24.4 95.0469 24.4C93.9589 24.4 93.0389 24.856 92.2869 25.768L90.0069 24.208C91.2549 22.64 92.9589 21.856 95.1189 21.856C96.9429 21.856 98.3349 22.288 99.2949 23.152C100.255 24 100.735 25.264 100.735 26.944V34H97.6389V32.752ZM97.6389 29.224C97.2709 29.048 96.8869 28.912 96.4869 28.816C96.1029 28.704 95.6789 28.648 95.2149 28.648C94.4629 28.648 93.8789 28.816 93.4629 29.152C93.0629 29.472 92.8629 29.872 92.8629 30.352C92.8629 30.832 93.0549 31.216 93.4389 31.504C93.8389 31.792 94.2949 31.936 94.8069 31.936C95.2229 31.936 95.6069 31.864 95.9589 31.72C96.3109 31.56 96.6069 31.36 96.8469 31.12C97.1029 30.864 97.2949 30.576 97.4229 30.256C97.5669 29.92 97.6389 29.576 97.6389 29.224ZM103.619 16.816H106.859V23.68H114.083V16.816H117.323V34H114.083V26.752H106.859V34H103.619V16.816ZM122.143 20.536C121.871 20.536 121.607 20.488 121.351 20.392C121.111 20.28 120.895 20.136 120.703 19.96C120.527 19.768 120.383 19.552 120.271 19.312C120.175 19.072 120.127 18.808 120.127 18.52C120.127 18.232 120.175 17.968 120.271 17.728C120.383 17.488 120.527 17.28 120.703 17.104C120.895 16.912 121.111 16.768 121.351 16.672C121.607 16.56 121.871 16.504 122.143 16.504C122.703 16.504 123.183 16.704 123.583 17.104C123.983 17.488 124.183 17.96 124.183 18.52C124.183 19.08 123.983 19.56 123.583 19.96C123.183 20.344 122.703 20.536 122.143 20.536ZM120.583 34V22.24H123.727V34H120.583ZM126.602 16.816H129.746V26.176H129.89L133.826 22.24H137.714V22.432L133.346 26.68L138.074 33.808V34H134.354L131.138 28.84L129.746 30.208V34H126.602V16.816ZM150.113 31.168C149.569 32.128 148.833 32.904 147.905 33.496C146.993 34.088 145.873 34.384 144.545 34.384C143.649 34.384 142.817 34.232 142.049 33.928C141.297 33.608 140.641 33.168 140.081 32.608C139.521 32.048 139.081 31.392 138.761 30.64C138.457 29.872 138.305 29.032 138.305 28.12C138.305 27.272 138.457 26.472 138.761 25.72C139.065 24.952 139.489 24.288 140.033 23.728C140.577 23.152 141.217 22.696 141.953 22.36C142.705 22.024 143.529 21.856 144.425 21.856C145.369 21.856 146.209 22.016 146.945 22.336C147.681 22.64 148.297 23.072 148.793 23.632C149.289 24.176 149.665 24.824 149.921 25.576C150.177 26.328 150.305 27.144 150.305 28.024C150.305 28.136 150.305 28.232 150.305 28.312C150.289 28.408 150.281 28.496 150.281 28.576C150.265 28.656 150.257 28.744 150.257 28.84H141.401C141.465 29.32 141.593 29.736 141.785 30.088C141.993 30.424 142.241 30.712 142.529 30.952C142.833 31.176 143.161 31.344 143.513 31.456C143.865 31.552 144.225 31.6 144.593 31.6C145.313 31.6 145.905 31.44 146.369 31.12C146.849 30.784 147.225 30.368 147.497 29.872L150.113 31.168ZM147.257 26.608C147.241 26.4 147.169 26.168 147.041 25.912C146.929 25.656 146.753 25.416 146.513 25.192C146.289 24.968 146.001 24.784 145.649 24.64C145.313 24.496 144.905 24.424 144.425 24.424C143.753 24.424 143.161 24.616 142.649 25C142.137 25.384 141.777 25.92 141.569 26.608H147.257ZM160.449 32.464H160.257C159.889 33.056 159.393 33.528 158.769 33.88C158.145 34.216 157.433 34.384 156.633 34.384C155.145 34.384 154.033 33.928 153.297 33.016C152.577 32.104 152.217 30.888 152.217 29.368V22.24H155.361V28.984C155.361 29.832 155.545 30.464 155.913 30.88C156.297 31.28 156.849 31.48 157.569 31.48C158.001 31.48 158.377 31.392 158.697 31.216C159.033 31.024 159.313 30.776 159.537 30.472C159.777 30.152 159.953 29.784 160.065 29.368C160.193 28.936 160.257 28.48 160.257 28V22.24H163.401V34H160.449V32.464ZM165.998 22.24H168.95V23.656H169.142C169.43 23.16 169.878 22.736 170.486 22.384C171.094 22.032 171.846 21.856 172.742 21.856C173.494 21.856 174.206 22.016 174.878 22.336C175.566 22.64 176.166 23.072 176.678 23.632C177.206 24.176 177.622 24.832 177.926 25.6C178.23 26.368 178.382 27.208 178.382 28.12C178.382 29.032 178.23 29.872 177.926 30.64C177.622 31.408 177.206 32.072 176.678 32.632C176.166 33.176 175.566 33.608 174.878 33.928C174.206 34.232 173.494 34.384 172.742 34.384C171.846 34.384 171.094 34.208 170.486 33.856C169.878 33.504 169.43 33.08 169.142 32.584H168.95L169.142 34.264V39.184H165.998V22.24ZM172.094 31.48C172.51 31.48 172.902 31.4 173.27 31.24C173.654 31.08 173.99 30.856 174.278 30.568C174.566 30.28 174.798 29.928 174.974 29.512C175.15 29.096 175.238 28.632 175.238 28.12C175.238 27.608 175.15 27.144 174.974 26.728C174.798 26.312 174.566 25.96 174.278 25.672C173.99 25.384 173.654 25.16 173.27 25C172.902 24.84 172.51 24.76 172.094 24.76C171.678 24.76 171.278 24.84 170.894 25C170.526 25.144 170.198 25.36 169.91 25.648C169.622 25.936 169.39 26.288 169.214 26.704C169.038 27.12 168.95 27.592 168.95 28.12C168.95 28.648 169.038 29.12 169.214 29.536C169.39 29.952 169.622 30.304 169.91 30.592C170.198 30.88 170.526 31.104 170.894 31.264C171.278 31.408 171.678 31.48 172.094 31.48Z" fill="#FCFCFC"/>
<defs>
<clipPath id="clip0">
<rect width="24" height="24" fill="white" transform="translate(12 10)"/>
</clipPath>
</defs>
</svg>
