<svg width="119" height="44" viewBox="0 0 119 44" fill="none" xmlns="http://www.w3.org/2000/svg">
<g clip-path="url(#clip0)">
<path d="M20 23.3427L15.4142 33.6783H24.5858L20 23.3427Z" fill="#F0AF0A"/>
<path d="M31.9009 32.5682L20.8545 13.4354L22.0113 11.4319C22.2156 11.078 22.0943 10.6254 21.7404 10.421C21.3864 10.2166 20.9338 10.3379 20.7296 10.6919L20 11.9554L19.2705 10.6919C19.0662 10.338 18.6136 10.2166 18.2597 10.421C17.9058 10.6254 17.7845 11.078 17.9888 11.4319L19.1456 13.4354L8.09918 32.5682C7.96694 32.7972 7.96694 33.0793 8.09918 33.3083C8.23136 33.5372 8.47563 33.6782 8.74005 33.6782H13.7951L19.26 21.3612V13.4354H20.7401V21.3612L26.205 33.6782H31.26C31.5244 33.6782 31.7687 33.5372 31.9009 33.3082C32.0331 33.0793 32.0331 32.7972 31.9009 32.5682Z" fill="#F0AF0A"/>
</g>
<path d="M39.64 32.304C39.768 32.384 39.888 32.44 40 32.472C40.128 32.504 40.28 32.52 40.456 32.52C41.176 32.52 41.536 32.048 41.536 31.104V18.24H44.68V31.2C44.68 31.968 44.576 32.616 44.368 33.144C44.16 33.688 43.88 34.128 43.528 34.464C43.176 34.8 42.768 35.04 42.304 35.184C41.84 35.344 41.344 35.424 40.816 35.424C40.416 35.424 40.056 35.392 39.736 35.328C39.416 35.28 39.12 35.2 38.848 35.088L39.64 32.304ZM43.096 16.536C42.824 16.536 42.56 16.488 42.304 16.392C42.064 16.28 41.848 16.136 41.656 15.96C41.48 15.768 41.336 15.552 41.224 15.312C41.128 15.072 41.08 14.808 41.08 14.52C41.08 14.232 41.128 13.968 41.224 13.728C41.336 13.488 41.48 13.28 41.656 13.104C41.848 12.912 42.064 12.768 42.304 12.672C42.56 12.56 42.824 12.504 43.096 12.504C43.656 12.504 44.136 12.704 44.536 13.104C44.936 13.488 45.136 13.96 45.136 14.52C45.136 15.08 44.936 15.56 44.536 15.96C44.136 16.344 43.656 16.536 43.096 16.536ZM54.6858 28.752H54.4938C54.1258 29.2 53.6778 29.584 53.1497 29.904C52.6378 30.224 51.9738 30.384 51.1578 30.384C50.5498 30.384 49.9738 30.28 49.4298 30.072C48.9018 29.88 48.4378 29.608 48.0378 29.256C47.6378 28.904 47.3258 28.48 47.1018 27.984C46.8778 27.488 46.7658 26.944 46.7658 26.352C46.7658 25.744 46.8858 25.2 47.1258 24.72C47.3658 24.224 47.7018 23.8 48.1338 23.448C48.5658 23.096 49.0698 22.832 49.6458 22.656C50.2378 22.464 50.8778 22.368 51.5658 22.368C52.3338 22.368 52.9658 22.432 53.4618 22.56C53.9578 22.672 54.3658 22.792 54.6858 22.92V22.56C54.6858 21.936 54.4378 21.424 53.9418 21.024C53.4458 20.608 52.8298 20.4 52.0938 20.4C51.0058 20.4 50.0858 20.856 49.3338 21.768L47.0538 20.208C48.3018 18.64 50.0058 17.856 52.1658 17.856C53.9898 17.856 55.3818 18.288 56.3418 19.152C57.3018 20 57.7818 21.264 57.7818 22.944V30H54.6858V28.752ZM54.6858 25.224C54.3178 25.048 53.9338 24.912 53.5338 24.816C53.1498 24.704 52.7258 24.648 52.2617 24.648C51.5098 24.648 50.9258 24.816 50.5098 25.152C50.1098 25.472 49.9098 25.872 49.9098 26.352C49.9098 26.832 50.1018 27.216 50.4858 27.504C50.8858 27.792 51.3418 27.936 51.8538 27.936C52.2698 27.936 52.6538 27.864 53.0058 27.72C53.3578 27.56 53.6538 27.36 53.8938 27.12C54.1498 26.864 54.3418 26.576 54.4698 26.256C54.6138 25.92 54.6858 25.576 54.6858 25.224ZM64.8203 30.384C64.0523 30.384 63.3643 30.288 62.7563 30.096C62.1643 29.904 61.6443 29.656 61.1963 29.352C60.7643 29.032 60.3963 28.672 60.0923 28.272C59.7883 27.856 59.5563 27.44 59.3963 27.024L62.2043 25.824C62.4763 26.432 62.8363 26.888 63.2843 27.192C63.7483 27.48 64.2603 27.624 64.8203 27.624C65.3963 27.624 65.8523 27.52 66.1883 27.312C66.5243 27.104 66.6923 26.856 66.6923 26.568C66.6923 26.248 66.5483 25.992 66.2603 25.8C65.9883 25.592 65.5083 25.408 64.8203 25.248L63.1643 24.888C62.7963 24.808 62.4123 24.68 62.0123 24.504C61.6283 24.328 61.2763 24.104 60.9563 23.832C60.6363 23.56 60.3723 23.232 60.1643 22.848C59.9563 22.464 59.8523 22.016 59.8523 21.504C59.8523 20.928 59.9723 20.416 60.2123 19.968C60.4683 19.52 60.8123 19.144 61.2443 18.84C61.6763 18.52 62.1803 18.28 62.7563 18.12C63.3483 17.944 63.9803 17.856 64.6523 17.856C65.7723 17.856 66.7723 18.08 67.6523 18.528C68.5323 18.96 69.1803 19.656 69.5963 20.616L66.8843 21.72C66.6603 21.256 66.3323 20.92 65.9003 20.712C65.4683 20.504 65.0363 20.4 64.6043 20.4C64.1563 20.4 63.7643 20.496 63.4283 20.688C63.0923 20.864 62.9243 21.096 62.9243 21.384C62.9243 21.656 63.0603 21.872 63.3323 22.032C63.6203 22.192 64.0043 22.336 64.4843 22.464L66.2843 22.896C67.4843 23.184 68.3723 23.648 68.9483 24.288C69.5403 24.912 69.8363 25.656 69.8363 26.52C69.8363 27.032 69.7163 27.52 69.4763 27.984C69.2363 28.448 68.8923 28.864 68.4443 29.232C68.0123 29.584 67.4843 29.864 66.8603 30.072C66.2523 30.28 65.5723 30.384 64.8203 30.384ZM72.9447 20.928H70.8807V18.24H72.9447V14.64H76.0887V18.24H78.9687V20.928H76.0887V25.488C76.0887 25.76 76.1127 26.016 76.1607 26.256C76.2247 26.48 76.3367 26.672 76.4967 26.832C76.7207 27.088 77.0407 27.216 77.4567 27.216C77.7287 27.216 77.9447 27.192 78.1047 27.144C78.2647 27.08 78.4167 27 78.5607 26.904L79.4487 29.664C79.0807 29.84 78.6807 29.968 78.2487 30.048C77.8327 30.144 77.3687 30.192 76.8567 30.192C76.2647 30.192 75.7287 30.104 75.2487 29.928C74.7847 29.736 74.3927 29.48 74.0727 29.16C73.3207 28.44 72.9447 27.416 72.9447 26.088V20.928ZM81.2815 18.24H84.2335V19.872H84.4255C84.5695 19.584 84.7615 19.32 85.0015 19.08C85.2415 18.84 85.5055 18.632 85.7935 18.456C86.0975 18.28 86.4175 18.144 86.7535 18.048C87.1055 17.952 87.4495 17.904 87.7855 17.904C88.2015 17.904 88.5535 17.944 88.8415 18.024C89.1455 18.104 89.4015 18.208 89.6095 18.336L88.7695 21.192C88.5775 21.096 88.3615 21.024 88.1215 20.976C87.8975 20.912 87.6175 20.88 87.2815 20.88C86.8495 20.88 86.4575 20.968 86.1055 21.144C85.7535 21.304 85.4495 21.536 85.1935 21.84C84.9535 22.144 84.7615 22.504 84.6175 22.92C84.4895 23.32 84.4255 23.76 84.4255 24.24V30H81.2815V18.24ZM92.8069 16.536C92.5349 16.536 92.2709 16.488 92.0149 16.392C91.7749 16.28 91.5589 16.136 91.3669 15.96C91.1909 15.768 91.0469 15.552 90.9349 15.312C90.8389 15.072 90.7909 14.808 90.7909 14.52C90.7909 14.232 90.8389 13.968 90.9349 13.728C91.0469 13.488 91.1909 13.28 91.3669 13.104C91.5589 12.912 91.7749 12.768 92.0149 12.672C92.2709 12.56 92.5349 12.504 92.8069 12.504C93.3669 12.504 93.8469 12.704 94.2469 13.104C94.6469 13.488 94.8469 13.96 94.8469 14.52C94.8469 15.08 94.6469 15.56 94.2469 15.96C93.8469 16.344 93.3669 16.536 92.8069 16.536ZM91.2469 30V18.24H94.3909V30H91.2469ZM97.1699 18.24H100.122V19.656H100.314C100.602 19.16 101.05 18.736 101.658 18.384C102.266 18.032 103.018 17.856 103.914 17.856C104.666 17.856 105.378 18.016 106.05 18.336C106.738 18.64 107.338 19.072 107.85 19.632C108.378 20.176 108.794 20.832 109.098 21.6C109.402 22.368 109.554 23.208 109.554 24.12C109.554 25.032 109.402 25.872 109.098 26.64C108.794 27.408 108.378 28.072 107.85 28.632C107.338 29.176 106.738 29.608 106.05 29.928C105.378 30.232 104.666 30.384 103.914 30.384C103.018 30.384 102.266 30.208 101.658 29.856C101.05 29.504 100.602 29.08 100.314 28.584H100.122L100.314 30.264V35.184H97.1699V18.24ZM103.266 27.48C103.682 27.48 104.074 27.4 104.442 27.24C104.826 27.08 105.162 26.856 105.45 26.568C105.738 26.28 105.97 25.928 106.146 25.512C106.322 25.096 106.41 24.632 106.41 24.12C106.41 23.608 106.322 23.144 106.146 22.728C105.97 22.312 105.738 21.96 105.45 21.672C105.162 21.384 104.826 21.16 104.442 21C104.074 20.84 103.682 20.76 103.266 20.76C102.85 20.76 102.45 20.84 102.066 21C101.698 21.144 101.37 21.36 101.082 21.648C100.794 21.936 100.562 22.288 100.386 22.704C100.21 23.12 100.122 23.592 100.122 24.12C100.122 24.648 100.21 25.12 100.386 25.536C100.562 25.952 100.794 26.304 101.082 26.592C101.37 26.88 101.698 27.104 102.066 27.264C102.45 27.408 102.85 27.48 103.266 27.48Z" fill="#1A1A1A"/>
<defs>
<clipPath id="clip0">
<rect width="24" height="24" fill="white" transform="translate(8 10)"/>
</clipPath>
</defs>
</svg>
