<svg width="765" height="286" viewBox="0 0 765 286" fill="none" xmlns="http://www.w3.org/2000/svg">
<path d="M685.307 0C694.041 0 717.5 0 717.5 0C717.5 0 716.5 4.5 719.291 10.373C731.036 35.0898 715.069 27.9808 725.291 75.3731C741.791 151.873 739.932 170.712 763.241 257.84C771.416 288.415 741.593 286.762 729.791 284.374C710.667 280.501 659.936 213.54 521.291 241.873C484.436 249.405 436.352 199.087 395.291 179.873C305.791 149.873 254.791 148.373 143.446 95.187C123.579 77.9354 77.5794 51.9354 55.0794 56.9354C43.0914 59.5994 14.1042 35.3336 3.60596 14.5C1.31624 9.95608 0.198025 3.67058 0 0H685.307Z" fill="#2E2D2D"/>
<path d="M541.133 217.211C491.807 176.574 440.951 137.81 388.698 101.013C382.192 96.4333 375.664 91.887 369.113 87.3687C368.392 86.8703 369.078 85.6819 369.807 86.1844C421.977 122.191 472.793 160.146 522.127 199.949C528.815 205.345 535.47 210.778 542.102 216.242C542.786 216.804 541.811 217.767 541.133 217.211Z" fill="white"/>
<path d="M493.531 150.68C486.076 143.775 478.621 136.872 471.163 129.971C470.513 129.369 471.484 128.401 472.132 129.002C479.592 135.903 487.045 142.806 494.5 149.709C495.15 150.311 494.179 151.278 493.531 150.68" fill="white"/>
<path d="M542.467 153.178C524.033 131.261 505.597 109.345 487.159 87.4297C486.595 86.7598 487.56 85.7828 488.13 86.4607C506.566 108.376 525 130.292 543.436 152.207C544 152.879 543.037 153.854 542.467 153.178" fill="#FAF9F2"/>
<path d="M609.482 102.271C603.891 100.468 598.302 98.6639 592.709 96.8594C591.871 96.5882 592.23 95.2642 593.075 95.5374C598.664 97.3419 604.256 99.1445 609.849 100.949C610.686 101.22 610.327 102.544 609.482 102.271Z" fill="white"/>
<path d="M523.67 210.806C531.556 216.121 539.444 221.435 547.33 226.753C548.058 227.244 547.374 228.432 546.638 227.936C538.752 222.62 530.862 217.306 522.976 211.99C522.248 211.499 522.934 210.311 523.67 210.806" fill="white"/>
<path d="M238.969 97.7242C265.903 114.001 292.837 130.277 319.771 146.554C320.527 147.011 319.837 148.197 319.08 147.738C292.145 131.46 265.211 115.183 238.275 98.9086C237.519 98.4519 238.209 97.2655 238.969 97.7242" fill="white"/>
<path d="M302.619 124.051C307.646 127.49 312.677 130.93 317.705 134.371C318.429 134.866 317.745 136.056 317.012 135.556C311.985 132.114 306.956 128.675 301.925 125.233C301.201 124.739 301.887 123.55 302.619 124.051" fill="white"/>
<path d="M604.471 91.8422C607.073 92.4503 609.679 93.0605 612.283 93.6687C613.144 93.8681 612.778 95.192 611.918 94.9906C609.314 94.3825 606.71 93.7724 604.104 93.1643C603.242 92.9649 603.609 91.6428 604.471 91.8422" fill="white"/>
</svg>
